<svg viewBox="0 0 2000 1400" xmlns="http://www.w3.org/2000/svg"><mask id="b" x="0" y="0" ><path fill="url(#a)" d="M0 0h2000v1400H0z"/></mask><g style="transform-origin:center center" stroke="#4c4e72" stroke-width="2" mask="url(#b)"><path fill="none" d="M0 0h100v100H0zM100 0h100v100H100zM200 0h100v100H200zM300 0h100v100H300zM400 0h100v100H400zM500 0h100v100H500zM600 0h100v100H600z"/><path fill="#4c4e7231" d="M700 0h100v100H700z"/><path fill="none" d="M800 0h100v100H800zM900 0h100v100H900z"/><path fill="#4c4e7299" d="M1000 0h100v100h-100z"/><path fill="#4c4e72a9" d="M1100 0h100v100h-100z"/><path fill="none" d="M1200 0h100v100h-100z"/><path fill="#4c4e72ba" d="M1300 0h100v100h-100z"/><path fill="#4c4e72de" d="M1400 0h100v100h-100z"/><path fill="none" d="M1500 0h100v100h-100zM1600 0h100v100h-100zM1700 0h100v100h-100zM1800 0h100v100h-100z"/><path fill="#4c4e720d" d="M1900 0h100v100h-100z"/><path fill="#4c4e7212" d="M0 100h100v100H0z"/><path fill="#4c4e7283" d="M100 100h100v100H100z"/><path fill="none" d="M200 100h100v100H200zM300 100h100v100H300z"/><path fill="#4c4e7286" d="M400 100h100v100H400z"/><path fill="none" d="M500 100h100v100H500z"/><path fill="#4c4e72a8" d="M600 100h100v100H600z"/><path fill="#4c4e728c" d="M700 100h100v100H700z"/><path fill="none" d="M800 100h100v100H800zM900 100h100v100H900z"/><path fill="#4c4e72f6" d="M1000 100h100v100h-100z"/><path fill="none" d="M1100 100h100v100h-100zM1200 100h100v100h-100zM1300 100h100v100h-100zM1400 100h100v100h-100zM1500 100h100v100h-100zM1600 100h100v100h-100zM1700 100h100v100h-100z"/><path fill="#4c4e7209" d="M1800 100h100v100h-100z"/><path fill="#4c4e7291" d="M1900 100h100v100h-100z"/><path fill="#4c4e72cb" d="M0 200h100v100H0z"/><path fill="none" d="M100 200h100v100H100zM200 200h100v100H200zM300 200h100v100H300z"/><path fill="#4c4e72ee" d="M400 200h100v100H400z"/><path fill="none" d="M500 200h100v100H500zM600 200h100v100H600z"/><path fill="#4c4e72e1" d="M700 200h100v100H700z"/><path fill="none" d="M800 200h100v100H800zM900 200h100v100H900zM1000 200h100v100h-100zM1100 200h100v100h-100z"/><path fill="#4c4e72bb" d="M1200 200h100v100h-100z"/><path fill="none" d="M1300 200h100v100h-100zM1400 200h100v100h-100zM1500 200h100v100h-100z"/><path fill="#4c4e724b" d="M1600 200h100v100h-100z"/><path fill="#4c4e7206" d="M1700 200h100v100h-100z"/><path fill="none" d="M1800 200h100v100h-100zM1900 200h100v100h-100z"/><path fill="#4c4e726f" d="M0 300h100v100H0z"/><path fill="none" d="M100 300h100v100H100zM200 300h100v100H200zM300 300h100v100H300z"/><path fill="#4c4e72d7" d="M400 300h100v100H400z"/><path fill="none" d="M500 300h100v100H500zM600 300h100v100H600zM700 300h100v100H700zM800 300h100v100H800zM900 300h100v100H900z"/><path fill="#4c4e72ac" d="M1000 300h100v100h-100z"/><path fill="none" d="M1100 300h100v100h-100zM1200 300h100v100h-100zM1300 300h100v100h-100z"/><path fill="#4c4e7215" d="M1400 300h100v100h-100z"/><path fill="none" d="M1500 300h100v100h-100zM1600 300h100v100h-100zM1700 300h100v100h-100zM1800 300h100v100h-100zM1900 300h100v100h-100zM0 400h100v100H0zM100 400h100v100H100z"/><path fill="#4c4e72c1" d="M200 400h100v100H200z"/><path fill="#4c4e72f6" d="M300 400h100v100H300z"/><path fill="#4c4e72f7" d="M400 400h100v100H400z"/><path fill="none" d="M500 400h100v100H500z"/><path fill="#4c4e722b" d="M600 400h100v100H600z"/><path fill="none" d="M700 400h100v100H700zM800 400h100v100H800z"/><path fill="#4c4e729a" d="M900 400h100v100H900z"/><path fill="#4c4e7249" d="M1000 400h100v100h-100z"/><path fill="none" d="M1100 400h100v100h-100z"/><path fill="#4c4e721c" d="M1200 400h100v100h-100z"/><path fill="none" d="M1300 400h100v100h-100zM1400 400h100v100h-100zM1500 400h100v100h-100zM1600 400h100v100h-100z"/><path fill="#4c4e721a" d="M1700 400h100v100h-100z"/><path fill="none" d="M1800 400h100v100h-100zM1900 400h100v100h-100zM0 500h100v100H0z"/><path fill="#4c4e7260" d="M100 500h100v100H100z"/><path fill="none" d="M200 500h100v100H200z"/><path fill="#4c4e72e4" d="M300 500h100v100H300z"/><path fill="none" d="M400 500h100v100H400zM500 500h100v100H500zM600 500h100v100H600z"/><path fill="#4c4e7224" d="M700 500h100v100H700z"/><path fill="#4c4e722e" d="M800 500h100v100H800z"/><path fill="none" d="M900 500h100v100H900zM1000 500h100v100h-100zM1100 500h100v100h-100zM1200 500h100v100h-100z"/><path fill="#4c4e7289" d="M1300 500h100v100h-100z"/><path fill="none" d="M1400 500h100v100h-100z"/><path fill="#4c4e72c8" d="M1500 500h100v100h-100z"/><path fill="none" d="M1600 500h100v100h-100zM1700 500h100v100h-100z"/><path fill="#4c4e723c" d="M1800 500h100v100h-100z"/><path fill="#4c4e72a7" d="M1900 500h100v100h-100z"/><path fill="none" d="M0 600h100v100H0z"/><path fill="#4c4e728b" d="M100 600h100v100H100z"/><path fill="none" d="M200 600h100v100H200z"/><path fill="#4c4e729a" d="M300 600h100v100H300z"/><path fill="#4c4e72c8" d="M400 600h100v100H400z"/><path fill="none" d="M500 600h100v100H500zM600 600h100v100H600z"/><path fill="#4c4e729f" d="M700 600h100v100H700z"/><path fill="none" d="M800 600h100v100H800zM900 600h100v100H900zM1000 600h100v100h-100z"/><path fill="#4c4e7283" d="M1100 600h100v100h-100z"/><path fill="none" d="M1200 600h100v100h-100zM1300 600h100v100h-100zM1400 600h100v100h-100zM1500 600h100v100h-100z"/><path fill="#4c4e7252" d="M1600 600h100v100h-100z"/><path fill="none" d="M1700 600h100v100h-100zM1800 600h100v100h-100zM1900 600h100v100h-100zM0 700h100v100H0zM100 700h100v100H100zM200 700h100v100H200zM300 700h100v100H300z"/><path fill="#4c4e72da" d="M400 700h100v100H400z"/><path fill="none" d="M500 700h100v100H500z"/><path fill="#4c4e728e" d="M600 700h100v100H600z"/><path fill="none" d="M700 700h100v100H700zM800 700h100v100H800z"/><path fill="#4c4e7288" d="M900 700h100v100H900z"/><path fill="none" d="M1000 700h100v100h-100zM1100 700h100v100h-100zM1200 700h100v100h-100z"/><path fill="#4c4e7251" d="M1300 700h100v100h-100z"/><path fill="none" d="M1400 700h100v100h-100z"/><path fill="#4c4e7283" d="M1500 700h100v100h-100z"/><path fill="#4c4e72a9" d="M1600 700h100v100h-100z"/><path fill="none" d="M1700 700h100v100h-100zM1800 700h100v100h-100z"/><path fill="#4c4e7271" d="M1900 700h100v100h-100z"/><path fill="none" d="M0 800h100v100H0zM100 800h100v100H100z"/><path fill="#4c4e724d" d="M200 800h100v100H200z"/><path fill="none" d="M300 800h100v100H300zM400 800h100v100H400zM500 800h100v100H500z"/><path fill="#4c4e7228" d="M600 800h100v100H600z"/><path fill="none" d="M700 800h100v100H700zM800 800h100v100H800z"/><path fill="#4c4e728d" d="M900 800h100v100H900z"/><path fill="none" d="M1000 800h100v100h-100zM1100 800h100v100h-100z"/><path fill="#4c4e72af" d="M1200 800h100v100h-100z"/><path fill="none" d="M1300 800h100v100h-100zM1400 800h100v100h-100z"/><path fill="#4c4e729b" d="M1500 800h100v100h-100z"/><path fill="none" d="M1600 800h100v100h-100z"/><path fill="#4c4e72e4" d="M1700 800h100v100h-100z"/><path fill="none" d="M1800 800h100v100h-100z"/><path fill="#4c4e72cf" d="M1900 800h100v100h-100z"/><path fill="none" d="M0 900h100v100H0zM100 900h100v100H100zM200 900h100v100H200zM300 900h100v100H300zM400 900h100v100H400zM500 900h100v100H500z"/><path fill="#4c4e725c" d="M600 900h100v100H600z"/><path fill="#4c4e72a1" d="M700 900h100v100H700z"/><path fill="none" d="M800 900h100v100H800zM900 900h100v100H900zM1000 900h100v100h-100zM1100 900h100v100h-100zM1200 900h100v100h-100z"/><path fill="#4c4e7291" d="M1300 900h100v100h-100z"/><path fill="none" d="M1400 900h100v100h-100zM1500 900h100v100h-100zM1600 900h100v100h-100zM1700 900h100v100h-100zM1800 900h100v100h-100z"/><path fill="#4c4e7287" d="M1900 900h100v100h-100z"/><path fill="#4c4e72e7" d="M0 1000h100v100H0z"/><path fill="none" d="M100 1000h100v100H100zM200 1000h100v100H200zM300 1000h100v100H300z"/><path fill="#4c4e72d8" d="M400 1000h100v100H400z"/><path fill="none" d="M500 1000h100v100H500zM600 1000h100v100H600zM700 1000h100v100H700zM800 1000h100v100H800zM900 1000h100v100H900zM1000 1000h100v100h-100z"/><path fill="#4c4e725a" d="M1100 1000h100v100h-100z"/><path fill="none" d="M1200 1000h100v100h-100zM1300 1000h100v100h-100z"/><path fill="#4c4e723a" d="M1400 1000h100v100h-100z"/><path fill="none" d="M1500 1000h100v100h-100zM1600 1000h100v100h-100zM1700 1000h100v100h-100z"/><path fill="#4c4e72b3" d="M1800 1000h100v100h-100z"/><path fill="none" d="M1900 1000h100v100h-100zM0 1100h100v100H0zM100 1100h100v100H100zM200 1100h100v100H200zM300 1100h100v100H300zM400 1100h100v100H400zM500 1100h100v100H500z"/><path fill="#4c4e72f9" d="M600 1100h100v100H600z"/><path fill="#4c4e72d6" d="M700 1100h100v100H700z"/><path fill="none" d="M800 1100h100v100H800zM900 1100h100v100H900zM1000 1100h100v100h-100zM1100 1100h100v100h-100z"/><path fill="#4c4e7210" d="M1200 1100h100v100h-100z"/><path fill="#4c4e722b" d="M1300 1100h100v100h-100z"/><path fill="none" d="M1400 1100h100v100h-100z"/><path fill="#4c4e7281" d="M1500 1100h100v100h-100z"/><path fill="none" d="M1600 1100h100v100h-100z"/><path fill="#4c4e7217" d="M1700 1100h100v100h-100z"/><path fill="#4c4e722b" d="M1800 1100h100v100h-100z"/><path fill="none" d="M1900 1100h100v100h-100zM0 1200h100v100H0zM100 1200h100v100H100zM200 1200h100v100H200z"/><path fill="#4c4e72b9" d="M300 1200h100v100H300z"/><path fill="none" d="M400 1200h100v100H400zM500 1200h100v100H500z"/><path fill="#4c4e7277" d="M600 1200h100v100H600z"/><path fill="none" d="M700 1200h100v100H700zM800 1200h100v100H800z"/><path fill="#4c4e72c6" d="M900 1200h100v100H900z"/><path fill="#4c4e72d1" d="M1000 1200h100v100h-100z"/><path fill="none" d="M1100 1200h100v100h-100zM1200 1200h100v100h-100z"/><path fill="#4c4e7236" d="M1300 1200h100v100h-100z"/><path fill="none" d="M1400 1200h100v100h-100zM1500 1200h100v100h-100z"/><path fill="#4c4e7286" d="M1600 1200h100v100h-100z"/><path fill="none" d="M1700 1200h100v100h-100zM1800 1200h100v100h-100zM1900 1200h100v100h-100z"/><path fill="#4c4e7275" d="M0 1300h100v100H0z"/><path fill="#4c4e7225" d="M100 1300h100v100H100z"/><path fill="none" d="M200 1300h100v100H200zM300 1300h100v100H300z"/><path fill="#4c4e72cc" d="M400 1300h100v100H400z"/><path fill="#4c4e727c" d="M500 1300h100v100H500z"/><path fill="none" d="M600 1300h100v100H600zM700 1300h100v100H700zM800 1300h100v100H800z"/><path fill="#4c4e72e5" d="M900 1300h100v100H900z"/><path fill="#4c4e72ad" d="M1000 1300h100v100h-100z"/><path fill="none" d="M1100 1300h100v100h-100zM1200 1300h100v100h-100z"/><path fill="#4c4e7231" d="M1300 1300h100v100h-100z"/><path fill="none" d="M1400 1300h100v100h-100zM1500 1300h100v100h-100zM1600 1300h100v100h-100zM1700 1300h100v100h-100z"/><path fill="#4c4e72a0" d="M1800 1300h100v100h-100z"/><path fill="none" d="M1900 1300h100v100h-100z"/></g><defs><radialGradient id="a"><stop offset="0" stop-color="#fff"/><stop offset="1" stop-color="#fff" stop-opacity="0"/></radialGradient></defs></svg>