<svg viewBox="0 0 2000 1400" xmlns="http://www.w3.org/2000/svg"><mask id="b" x="0" y="0" width="2000" height="1400"><path fill="url(#a)" d="M0 0h2000v1400H0z"/></mask><g style="transform-origin:center center" mask="url(#b)"><path stroke="#4c4e72" stroke-width="1.14942" fill="none" d="m99.772 0 49.771 28.736v57.47l-49.771 28.737L50 86.207V28.736ZM199.772 0l49.771 28.736v57.47l-49.771 28.737L150 86.207V28.736ZM299.772 0l49.771 28.736v57.47l-49.771 28.737L250 86.207V28.736ZM399.772 0l49.771 28.736v57.47l-49.771 28.737L350 86.207V28.736ZM499.772 0l49.771 28.736v57.47l-49.771 28.737L450 86.207V28.736ZM599.772 0l49.771 28.736v57.47l-49.771 28.737L550 86.207V28.736ZM699.772 0l49.771 28.736v57.47l-49.771 28.737L650 86.207V28.736ZM799.772 0l49.771 28.736v57.47l-49.771 28.737L750 86.207V28.736ZM899.772 0l49.771 28.736v57.47l-49.771 28.737L850 86.207V28.736ZM999.772 0l49.771 28.736v57.47l-49.771 28.737L950 86.207V28.736ZM1099.772 0l49.771 28.736v57.47l-49.771 28.737L1050 86.207V28.736ZM1199.772 0l49.771 28.736v57.47l-49.771 28.737L1150 86.207V28.736ZM1299.772 0l49.771 28.736v57.47l-49.771 28.737L1250 86.207V28.736ZM1399.772 0l49.771 28.736v57.47l-49.771 28.737L1350 86.207V28.736ZM1499.772 0l49.771 28.736v57.47l-49.771 28.737L1450 86.207V28.736ZM1599.772 0l49.771 28.736v57.47l-49.771 28.737L1550 86.207V28.736ZM1699.772 0l49.771 28.736v57.47l-49.771 28.737L1650 86.207V28.736ZM1799.772 0l49.771 28.736v57.47l-49.771 28.737L1750 86.207V28.736ZM1899.772 0l49.771 28.736v57.47l-49.771 28.737L1850 86.207V28.736ZM1999.772 0l49.771 28.736v57.47l-49.771 28.737L1950 86.207V28.736ZM49.772 86.207l49.771 28.736v57.47L49.772 201.15 0 172.414v-57.471ZM149.772 86.207l49.771 28.736v57.47l-49.771 28.736L100 172.414v-57.471ZM249.772 86.207l49.771 28.736v57.47l-49.771 28.736L200 172.414v-57.471ZM349.772 86.207l49.771 28.736v57.47l-49.771 28.736L300 172.414v-57.471ZM449.772 86.207l49.771 28.736v57.47l-49.771 28.736L400 172.414v-57.471ZM549.772 86.207l49.771 28.736v57.47l-49.771 28.736L500 172.414v-57.471ZM649.772 86.207l49.771 28.736v57.47l-49.771 28.736L600 172.414v-57.471ZM749.772 86.207l49.771 28.736v57.47l-49.771 28.736L700 172.414v-57.471ZM849.772 86.207l49.771 28.736v57.47l-49.771 28.736L800 172.414v-57.471ZM949.772 86.207l49.771 28.736v57.47l-49.771 28.736L900 172.414v-57.471ZM1049.772 86.207l49.771 28.736v57.47l-49.771 28.736L1000 172.414v-57.471ZM1149.772 86.207l49.771 28.736v57.47l-49.771 28.736L1100 172.414v-57.471ZM1249.772 86.207l49.771 28.736v57.47l-49.771 28.736L1200 172.414v-57.471ZM1349.772 86.207l49.771 28.736v57.47l-49.771 28.736L1300 172.414v-57.471ZM1449.772 86.207l49.771 28.736v57.47l-49.771 28.736L1400 172.414v-57.471ZM1549.772 86.207l49.771 28.736v57.47l-49.771 28.736L1500 172.414v-57.471ZM1649.772 86.207l49.771 28.736v57.47l-49.771 28.736L1600 172.414v-57.471ZM1749.772 86.207l49.771 28.736v57.47l-49.771 28.736L1700 172.414v-57.471ZM1849.772 86.207l49.771 28.736v57.47l-49.771 28.736L1800 172.414v-57.471ZM1949.772 86.207l49.771 28.736v57.47l-49.771 28.736L1900 172.414v-57.471ZM99.772 172.414l49.771 28.735v57.472l-49.771 28.735L50 258.621v-57.472ZM199.772 172.414l49.771 28.735v57.472l-49.771 28.735L150 258.621v-57.472ZM299.772 172.414l49.771 28.735v57.472l-49.771 28.735L250 258.621v-57.472ZM399.772 172.414l49.771 28.735v57.472l-49.771 28.735L350 258.621v-57.472ZM499.772 172.414l49.771 28.735v57.472l-49.771 28.735L450 258.621v-57.472ZM599.772 172.414l49.771 28.735v57.472l-49.771 28.735L550 258.621v-57.472ZM699.772 172.414l49.771 28.735v57.472l-49.771 28.735L650 258.621v-57.472ZM799.772 172.414l49.771 28.735v57.472l-49.771 28.735L750 258.621v-57.472ZM899.772 172.414l49.771 28.735v57.472l-49.771 28.735L850 258.621v-57.472ZM999.772 172.414l49.771 28.735v57.472l-49.771 28.735L950 258.621v-57.472ZM1099.772 172.414l49.771 28.735v57.472l-49.771 28.735L1050 258.621v-57.472ZM1199.772 172.414l49.771 28.735v57.472l-49.771 28.735L1150 258.621v-57.472ZM1299.772 172.414l49.771 28.735v57.472l-49.771 28.735L1250 258.621v-57.472ZM1399.772 172.414l49.771 28.735v57.472l-49.771 28.735L1350 258.621v-57.472ZM1499.772 172.414l49.771 28.735v57.472l-49.771 28.735L1450 258.621v-57.472ZM1599.772 172.414l49.771 28.735v57.472l-49.771 28.735L1550 258.621v-57.472ZM1699.772 172.414l49.771 28.735v57.472l-49.771 28.735L1650 258.621v-57.472ZM1799.772 172.414l49.771 28.735v57.472l-49.771 28.735L1750 258.621v-57.472ZM1899.772 172.414l49.771 28.735v57.472l-49.771 28.735L1850 258.621v-57.472ZM1999.772 172.414l49.771 28.735v57.472l-49.771 28.735L1950 258.621v-57.472ZM49.772 258.62l49.771 28.736v57.472l-49.771 28.735L0 344.828v-57.472ZM149.772 258.62l49.771 28.736v57.472l-49.771 28.735L100 344.828v-57.472ZM249.772 258.62l49.771 28.736v57.472l-49.771 28.735L200 344.828v-57.472ZM349.772 258.62l49.771 28.736v57.472l-49.771 28.735L300 344.828v-57.472ZM449.772 258.62l49.771 28.736v57.472l-49.771 28.735L400 344.828v-57.472ZM549.772 258.62l49.771 28.736v57.472l-49.771 28.735L500 344.828v-57.472ZM649.772 258.62l49.771 28.736v57.472l-49.771 28.735L600 344.828v-57.472ZM749.772 258.62l49.771 28.736v57.472l-49.771 28.735L700 344.828v-57.472ZM849.772 258.62l49.771 28.736v57.472l-49.771 28.735L800 344.828v-57.472ZM949.772 258.62l49.771 28.736v57.472l-49.771 28.735L900 344.828v-57.472ZM1049.772 258.62l49.771 28.736v57.472l-49.771 28.735L1000 344.828v-57.472ZM1149.772 258.62l49.771 28.736v57.472l-49.771 28.735L1100 344.828v-57.472ZM1249.772 258.62l49.771 28.736v57.472l-49.771 28.735L1200 344.828v-57.472ZM1349.772 258.62l49.771 28.736v57.472l-49.771 28.735L1300 344.828v-57.472ZM1449.772 258.62l49.771 28.736v57.472l-49.771 28.735L1400 344.828v-57.472ZM1549.772 258.62l49.771 28.736v57.472l-49.771 28.735L1500 344.828v-57.472ZM1649.772 258.62l49.771 28.736v57.472l-49.771 28.735L1600 344.828v-57.472ZM1749.772 258.62l49.771 28.736v57.472l-49.771 28.735L1700 344.828v-57.472ZM1849.772 258.62l49.771 28.736v57.472l-49.771 28.735L1800 344.828v-57.472ZM1949.772 258.62l49.771 28.736v57.472l-49.771 28.735L1900 344.828v-57.472ZM99.772 344.828l49.771 28.735v57.471L99.772 459.77 50 431.034v-57.47ZM199.772 344.828l49.771 28.735v57.471l-49.771 28.736L150 431.034v-57.47ZM299.772 344.828l49.771 28.735v57.471l-49.771 28.736L250 431.034v-57.47ZM399.772 344.828l49.771 28.735v57.471l-49.771 28.736L350 431.034v-57.47ZM499.772 344.828l49.771 28.735v57.471l-49.771 28.736L450 431.034v-57.47ZM599.772 344.828l49.771 28.735v57.471l-49.771 28.736L550 431.034v-57.47ZM699.772 344.828l49.771 28.735v57.471l-49.771 28.736L650 431.034v-57.47ZM799.772 344.828l49.771 28.735v57.471l-49.771 28.736L750 431.034v-57.47ZM899.772 344.828l49.771 28.735v57.471l-49.771 28.736L850 431.034v-57.47ZM999.772 344.828l49.771 28.735v57.471l-49.771 28.736L950 431.034v-57.47ZM1099.772 344.828l49.771 28.735v57.471l-49.771 28.736L1050 431.034v-57.47ZM1199.772 344.828l49.771 28.735v57.471l-49.771 28.736L1150 431.034v-57.47ZM1299.772 344.828l49.771 28.735v57.471l-49.771 28.736L1250 431.034v-57.47ZM1399.772 344.828l49.771 28.735v57.471l-49.771 28.736L1350 431.034v-57.47ZM1499.772 344.828l49.771 28.735v57.471l-49.771 28.736L1450 431.034v-57.47ZM1599.772 344.828l49.771 28.735v57.471l-49.771 28.736L1550 431.034v-57.47ZM1699.772 344.828l49.771 28.735v57.471l-49.771 28.736L1650 431.034v-57.47ZM1799.772 344.828l49.771 28.735v57.471l-49.771 28.736L1750 431.034v-57.47ZM1899.772 344.828l49.771 28.735v57.471l-49.771 28.736L1850 431.034v-57.47ZM1999.772 344.828l49.771 28.735v57.471l-49.771 28.736L1950 431.034v-57.47ZM49.772 431.034l49.771 28.736v57.471l-49.771 28.736L0 517.241v-57.47ZM149.772 431.034l49.771 28.736v57.471l-49.771 28.736L100 517.241v-57.47ZM249.772 431.034l49.771 28.736v57.471l-49.771 28.736L200 517.241v-57.47ZM349.772 431.034l49.771 28.736v57.471l-49.771 28.736L300 517.241v-57.47ZM449.772 431.034l49.771 28.736v57.471l-49.771 28.736L400 517.241v-57.47ZM549.772 431.034l49.771 28.736v57.471l-49.771 28.736L500 517.241v-57.47ZM649.772 431.034l49.771 28.736v57.471l-49.771 28.736L600 517.241v-57.47ZM749.772 431.034l49.771 28.736v57.471l-49.771 28.736L700 517.241v-57.47ZM849.772 431.034l49.771 28.736v57.471l-49.771 28.736L800 517.241v-57.47ZM949.772 431.034l49.771 28.736v57.471l-49.771 28.736L900 517.241v-57.47ZM1049.772 431.034l49.771 28.736v57.471l-49.771 28.736L1000 517.241v-57.47ZM1149.772 431.034l49.771 28.736v57.471l-49.771 28.736L1100 517.241v-57.47ZM1249.772 431.034l49.771 28.736v57.471l-49.771 28.736L1200 517.241v-57.47ZM1349.772 431.034l49.771 28.736v57.471l-49.771 28.736L1300 517.241v-57.47ZM1449.772 431.034l49.771 28.736v57.471l-49.771 28.736L1400 517.241v-57.47ZM1549.772 431.034l49.771 28.736v57.471l-49.771 28.736L1500 517.241v-57.47ZM1649.772 431.034l49.771 28.736v57.471l-49.771 28.736L1600 517.241v-57.47ZM1749.772 431.034l49.771 28.736v57.471l-49.771 28.736L1700 517.241v-57.47ZM1849.772 431.034l49.771 28.736v57.471l-49.771 28.736L1800 517.241v-57.47ZM1949.772 431.034l49.771 28.736v57.471l-49.771 28.736L1900 517.241v-57.47ZM99.772 517.241l49.771 28.736v57.471l-49.771 28.736L50 603.448v-57.471ZM199.772 517.241l49.771 28.736v57.471l-49.771 28.736L150 603.448v-57.471ZM299.772 517.241l49.771 28.736v57.471l-49.771 28.736L250 603.448v-57.471ZM399.772 517.241l49.771 28.736v57.471l-49.771 28.736L350 603.448v-57.471ZM499.772 517.241l49.771 28.736v57.471l-49.771 28.736L450 603.448v-57.471ZM599.772 517.241l49.771 28.736v57.471l-49.771 28.736L550 603.448v-57.471ZM699.772 517.241l49.771 28.736v57.471l-49.771 28.736L650 603.448v-57.471ZM799.772 517.241l49.771 28.736v57.471l-49.771 28.736L750 603.448v-57.471ZM899.772 517.241l49.771 28.736v57.471l-49.771 28.736L850 603.448v-57.471ZM999.772 517.241l49.771 28.736v57.471l-49.771 28.736L950 603.448v-57.471ZM1099.772 517.241l49.771 28.736v57.471l-49.771 28.736L1050 603.448v-57.471ZM1199.772 517.241l49.771 28.736v57.471l-49.771 28.736L1150 603.448v-57.471ZM1299.772 517.241l49.771 28.736v57.471l-49.771 28.736L1250 603.448v-57.471ZM1399.772 517.241l49.771 28.736v57.471l-49.771 28.736L1350 603.448v-57.471ZM1499.772 517.241l49.771 28.736v57.471l-49.771 28.736L1450 603.448v-57.471ZM1599.772 517.241l49.771 28.736v57.471l-49.771 28.736L1550 603.448v-57.471ZM1699.772 517.241l49.771 28.736v57.471l-49.771 28.736L1650 603.448v-57.471ZM1799.772 517.241l49.771 28.736v57.471l-49.771 28.736L1750 603.448v-57.471ZM1899.772 517.241l49.771 28.736v57.471l-49.771 28.736L1850 603.448v-57.471ZM1999.772 517.241l49.771 28.736v57.471l-49.771 28.736L1950 603.448v-57.471ZM49.772 603.448l49.771 28.736v57.471l-49.771 28.736L0 689.655v-57.471ZM149.772 603.448l49.771 28.736v57.471l-49.771 28.736L100 689.655v-57.471ZM249.772 603.448l49.771 28.736v57.471l-49.771 28.736L200 689.655v-57.471ZM349.772 603.448l49.771 28.736v57.471l-49.771 28.736L300 689.655v-57.471ZM449.772 603.448l49.771 28.736v57.471l-49.771 28.736L400 689.655v-57.471ZM549.772 603.448l49.771 28.736v57.471l-49.771 28.736L500 689.655v-57.471ZM649.772 603.448l49.771 28.736v57.471l-49.771 28.736L600 689.655v-57.471ZM749.772 603.448l49.771 28.736v57.471l-49.771 28.736L700 689.655v-57.471ZM849.772 603.448l49.771 28.736v57.471l-49.771 28.736L800 689.655v-57.471ZM949.772 603.448l49.771 28.736v57.471l-49.771 28.736L900 689.655v-57.471ZM1049.772 603.448l49.771 28.736v57.471l-49.771 28.736L1000 689.655v-57.471ZM1149.772 603.448l49.771 28.736v57.471l-49.771 28.736L1100 689.655v-57.471ZM1249.772 603.448l49.771 28.736v57.471l-49.771 28.736L1200 689.655v-57.471ZM1349.772 603.448l49.771 28.736v57.471l-49.771 28.736L1300 689.655v-57.471ZM1449.772 603.448l49.771 28.736v57.471l-49.771 28.736L1400 689.655v-57.471ZM1549.772 603.448l49.771 28.736v57.471l-49.771 28.736L1500 689.655v-57.471ZM1649.772 603.448l49.771 28.736v57.471l-49.771 28.736L1600 689.655v-57.471ZM1749.772 603.448l49.771 28.736v57.471l-49.771 28.736L1700 689.655v-57.471ZM1849.772 603.448l49.771 28.736v57.471l-49.771 28.736L1800 689.655v-57.471ZM1949.772 603.448l49.771 28.736v57.471l-49.771 28.736L1900 689.655v-57.471ZM99.772 689.655l49.771 28.736v57.471l-49.771 28.736L50 775.862v-57.471ZM199.772 689.655l49.771 28.736v57.471l-49.771 28.736L150 775.862v-57.471ZM299.772 689.655l49.771 28.736v57.471l-49.771 28.736L250 775.862v-57.471ZM399.772 689.655l49.771 28.736v57.471l-49.771 28.736L350 775.862v-57.471ZM499.772 689.655l49.771 28.736v57.471l-49.771 28.736L450 775.862v-57.471ZM599.772 689.655l49.771 28.736v57.471l-49.771 28.736L550 775.862v-57.471ZM699.772 689.655l49.771 28.736v57.471l-49.771 28.736L650 775.862v-57.471ZM799.772 689.655l49.771 28.736v57.471l-49.771 28.736L750 775.862v-57.471ZM899.772 689.655l49.771 28.736v57.471l-49.771 28.736L850 775.862v-57.471ZM999.772 689.655l49.771 28.736v57.471l-49.771 28.736L950 775.862v-57.471ZM1099.772 689.655l49.771 28.736v57.471l-49.771 28.736L1050 775.862v-57.471ZM1199.772 689.655l49.771 28.736v57.471l-49.771 28.736L1150 775.862v-57.471ZM1299.772 689.655l49.771 28.736v57.471l-49.771 28.736L1250 775.862v-57.471ZM1399.772 689.655l49.771 28.736v57.471l-49.771 28.736L1350 775.862v-57.471ZM1499.772 689.655l49.771 28.736v57.471l-49.771 28.736L1450 775.862v-57.471ZM1599.772 689.655l49.771 28.736v57.471l-49.771 28.736L1550 775.862v-57.471ZM1699.772 689.655l49.771 28.736v57.471l-49.771 28.736L1650 775.862v-57.471ZM1799.772 689.655l49.771 28.736v57.471l-49.771 28.736L1750 775.862v-57.471ZM1899.772 689.655l49.771 28.736v57.471l-49.771 28.736L1850 775.862v-57.471ZM1999.772 689.655l49.771 28.736v57.471l-49.771 28.736L1950 775.862v-57.471ZM49.772 775.862l49.771 28.736v57.471l-49.771 28.736L0 862.069v-57.471ZM149.772 775.862l49.771 28.736v57.471l-49.771 28.736L100 862.069v-57.471ZM249.772 775.862l49.771 28.736v57.471l-49.771 28.736L200 862.069v-57.471ZM349.772 775.862l49.771 28.736v57.471l-49.771 28.736L300 862.069v-57.471ZM449.772 775.862l49.771 28.736v57.471l-49.771 28.736L400 862.069v-57.471ZM549.772 775.862l49.771 28.736v57.471l-49.771 28.736L500 862.069v-57.471ZM649.772 775.862l49.771 28.736v57.471l-49.771 28.736L600 862.069v-57.471ZM749.772 775.862l49.771 28.736v57.471l-49.771 28.736L700 862.069v-57.471ZM849.772 775.862l49.771 28.736v57.471l-49.771 28.736L800 862.069v-57.471ZM949.772 775.862l49.771 28.736v57.471l-49.771 28.736L900 862.069v-57.471ZM1049.772 775.862l49.771 28.736v57.471l-49.771 28.736L1000 862.069v-57.471ZM1149.772 775.862l49.771 28.736v57.471l-49.771 28.736L1100 862.069v-57.471ZM1249.772 775.862l49.771 28.736v57.471l-49.771 28.736L1200 862.069v-57.471ZM1349.772 775.862l49.771 28.736v57.471l-49.771 28.736L1300 862.069v-57.471ZM1449.772 775.862l49.771 28.736v57.471l-49.771 28.736L1400 862.069v-57.471ZM1549.772 775.862l49.771 28.736v57.471l-49.771 28.736L1500 862.069v-57.471ZM1649.772 775.862l49.771 28.736v57.471l-49.771 28.736L1600 862.069v-57.471ZM1749.772 775.862l49.771 28.736v57.471l-49.771 28.736L1700 862.069v-57.471ZM1849.772 775.862l49.771 28.736v57.471l-49.771 28.736L1800 862.069v-57.471ZM1949.772 775.862l49.771 28.736v57.471l-49.771 28.736L1900 862.069v-57.471ZM99.772 862.069l49.771 28.736v57.47l-49.771 28.736L50 948.276v-57.471ZM199.772 862.069l49.771 28.736v57.47l-49.771 28.736L150 948.276v-57.471ZM299.772 862.069l49.771 28.736v57.47l-49.771 28.736L250 948.276v-57.471ZM399.772 862.069l49.771 28.736v57.47l-49.771 28.736L350 948.276v-57.471ZM499.772 862.069l49.771 28.736v57.47l-49.771 28.736L450 948.276v-57.471ZM599.772 862.069l49.771 28.736v57.47l-49.771 28.736L550 948.276v-57.471ZM699.772 862.069l49.771 28.736v57.47l-49.771 28.736L650 948.276v-57.471ZM799.772 862.069l49.771 28.736v57.47l-49.771 28.736L750 948.276v-57.471ZM899.772 862.069l49.771 28.736v57.47l-49.771 28.736L850 948.276v-57.471ZM999.772 862.069l49.771 28.736v57.47l-49.771 28.736L950 948.276v-57.471ZM1099.772 862.069l49.771 28.736v57.47l-49.771 28.736L1050 948.276v-57.471ZM1199.772 862.069l49.771 28.736v57.47l-49.771 28.736L1150 948.276v-57.471ZM1299.772 862.069l49.771 28.736v57.47l-49.771 28.736L1250 948.276v-57.471ZM1399.772 862.069l49.771 28.736v57.47l-49.771 28.736L1350 948.276v-57.471ZM1499.772 862.069l49.771 28.736v57.47l-49.771 28.736L1450 948.276v-57.471ZM1599.772 862.069l49.771 28.736v57.47l-49.771 28.736L1550 948.276v-57.471ZM1699.772 862.069l49.771 28.736v57.47l-49.771 28.736L1650 948.276v-57.471ZM1799.772 862.069l49.771 28.736v57.47l-49.771 28.736L1750 948.276v-57.471ZM1899.772 862.069l49.771 28.736v57.47l-49.771 28.736L1850 948.276v-57.471ZM1999.772 862.069l49.771 28.736v57.47l-49.771 28.736L1950 948.276v-57.471ZM49.772 948.276l49.771 28.735v57.472l-49.771 28.735L0 1034.483V977.01ZM149.772 948.276l49.771 28.735v57.472l-49.771 28.735L100 1034.483V977.01ZM249.772 948.276l49.771 28.735v57.472l-49.771 28.735L200 1034.483V977.01ZM349.772 948.276l49.771 28.735v57.472l-49.771 28.735L300 1034.483V977.01ZM449.772 948.276l49.771 28.735v57.472l-49.771 28.735L400 1034.483V977.01ZM549.772 948.276l49.771 28.735v57.472l-49.771 28.735L500 1034.483V977.01ZM649.772 948.276l49.771 28.735v57.472l-49.771 28.735L600 1034.483V977.01ZM749.772 948.276l49.771 28.735v57.472l-49.771 28.735L700 1034.483V977.01ZM849.772 948.276l49.771 28.735v57.472l-49.771 28.735L800 1034.483V977.01ZM949.772 948.276l49.771 28.735v57.472l-49.771 28.735L900 1034.483V977.01ZM1049.772 948.276l49.771 28.735v57.472l-49.771 28.735-49.772-28.735V977.01ZM1149.772 948.276l49.771 28.735v57.472l-49.771 28.735-49.772-28.735V977.01ZM1249.772 948.276l49.771 28.735v57.472l-49.771 28.735-49.772-28.735V977.01ZM1349.772 948.276l49.771 28.735v57.472l-49.771 28.735-49.772-28.735V977.01ZM1449.772 948.276l49.771 28.735v57.472l-49.771 28.735-49.772-28.735V977.01ZM1549.772 948.276l49.771 28.735v57.472l-49.771 28.735-49.772-28.735V977.01ZM1649.772 948.276l49.771 28.735v57.472l-49.771 28.735-49.772-28.735V977.01ZM1749.772 948.276l49.771 28.735v57.472l-49.771 28.735-49.772-28.735V977.01ZM1849.772 948.276l49.771 28.735v57.472l-49.771 28.735-49.772-28.735V977.01ZM1949.772 948.276l49.771 28.735v57.472l-49.771 28.735-49.772-28.735V977.01ZM99.772 1034.483l49.771 28.735v57.472l-49.771 28.735L50 1120.69v-57.472ZM199.772 1034.483l49.771 28.735v57.472l-49.771 28.735L150 1120.69v-57.472ZM299.772 1034.483l49.771 28.735v57.472l-49.771 28.735L250 1120.69v-57.472ZM399.772 1034.483l49.771 28.735v57.472l-49.771 28.735L350 1120.69v-57.472ZM499.772 1034.483l49.771 28.735v57.472l-49.771 28.735L450 1120.69v-57.472ZM599.772 1034.483l49.771 28.735v57.472l-49.771 28.735L550 1120.69v-57.472ZM699.772 1034.483l49.771 28.735v57.472l-49.771 28.735L650 1120.69v-57.472ZM799.772 1034.483l49.771 28.735v57.472l-49.771 28.735L750 1120.69v-57.472ZM899.772 1034.483l49.771 28.735v57.472l-49.771 28.735L850 1120.69v-57.472ZM999.772 1034.483l49.771 28.735v57.472l-49.771 28.735L950 1120.69v-57.472ZM1099.772 1034.483l49.771 28.735v57.472l-49.771 28.735L1050 1120.69v-57.472ZM1199.772 1034.483l49.771 28.735v57.472l-49.771 28.735L1150 1120.69v-57.472ZM1299.772 1034.483l49.771 28.735v57.472l-49.771 28.735L1250 1120.69v-57.472ZM1399.772 1034.483l49.771 28.735v57.472l-49.771 28.735L1350 1120.69v-57.472ZM1499.772 1034.483l49.771 28.735v57.472l-49.771 28.735L1450 1120.69v-57.472ZM1599.772 1034.483l49.771 28.735v57.472l-49.771 28.735L1550 1120.69v-57.472ZM1699.772 1034.483l49.771 28.735v57.472l-49.771 28.735L1650 1120.69v-57.472ZM1799.772 1034.483l49.771 28.735v57.472l-49.771 28.735L1750 1120.69v-57.472ZM1899.772 1034.483l49.771 28.735v57.472l-49.771 28.735L1850 1120.69v-57.472ZM1999.772 1034.483l49.771 28.735v57.472l-49.771 28.735L1950 1120.69v-57.472ZM49.772 1120.69l49.771 28.735v57.472l-49.771 28.735L0 1206.897v-57.472ZM149.772 1120.69l49.771 28.735v57.472l-49.771 28.735L100 1206.897v-57.472ZM249.772 1120.69l49.771 28.735v57.472l-49.771 28.735L200 1206.897v-57.472ZM349.772 1120.69l49.771 28.735v57.472l-49.771 28.735L300 1206.897v-57.472ZM449.772 1120.69l49.771 28.735v57.472l-49.771 28.735L400 1206.897v-57.472ZM549.772 1120.69l49.771 28.735v57.472l-49.771 28.735L500 1206.897v-57.472ZM649.772 1120.69l49.771 28.735v57.472l-49.771 28.735L600 1206.897v-57.472ZM749.772 1120.69l49.771 28.735v57.472l-49.771 28.735L700 1206.897v-57.472ZM849.772 1120.69l49.771 28.735v57.472l-49.771 28.735L800 1206.897v-57.472ZM949.772 1120.69l49.771 28.735v57.472l-49.771 28.735L900 1206.897v-57.472ZM1049.772 1120.69l49.771 28.735v57.472l-49.771 28.735-49.772-28.735v-57.472ZM1149.772 1120.69l49.771 28.735v57.472l-49.771 28.735-49.772-28.735v-57.472ZM1249.772 1120.69l49.771 28.735v57.472l-49.771 28.735-49.772-28.735v-57.472ZM1349.772 1120.69l49.771 28.735v57.472l-49.771 28.735-49.772-28.735v-57.472ZM1449.772 1120.69l49.771 28.735v57.472l-49.771 28.735-49.772-28.735v-57.472ZM1549.772 1120.69l49.771 28.735v57.472l-49.771 28.735-49.772-28.735v-57.472ZM1649.772 1120.69l49.771 28.735v57.472l-49.771 28.735-49.772-28.735v-57.472ZM1749.772 1120.69l49.771 28.735v57.472l-49.771 28.735-49.772-28.735v-57.472ZM1849.772 1120.69l49.771 28.735v57.472l-49.771 28.735-49.772-28.735v-57.472ZM1949.772 1120.69l49.771 28.735v57.472l-49.771 28.735-49.772-28.735v-57.472ZM99.772 1206.897l49.771 28.735v57.471l-49.771 28.736L50 1293.103v-57.47ZM199.772 1206.897l49.771 28.735v57.471l-49.771 28.736L150 1293.103v-57.47ZM299.772 1206.897l49.771 28.735v57.471l-49.771 28.736L250 1293.103v-57.47ZM399.772 1206.897l49.771 28.735v57.471l-49.771 28.736L350 1293.103v-57.47ZM499.772 1206.897l49.771 28.735v57.471l-49.771 28.736L450 1293.103v-57.47ZM599.772 1206.897l49.771 28.735v57.471l-49.771 28.736L550 1293.103v-57.47ZM699.772 1206.897l49.771 28.735v57.471l-49.771 28.736L650 1293.103v-57.47ZM799.772 1206.897l49.771 28.735v57.471l-49.771 28.736L750 1293.103v-57.47ZM899.772 1206.897l49.771 28.735v57.471l-49.771 28.736L850 1293.103v-57.47ZM999.772 1206.897l49.771 28.735v57.471l-49.771 28.736L950 1293.103v-57.47ZM1099.772 1206.897l49.771 28.735v57.471l-49.771 28.736-49.772-28.736v-57.47ZM1199.772 1206.897l49.771 28.735v57.471l-49.771 28.736-49.772-28.736v-57.47ZM1299.772 1206.897l49.771 28.735v57.471l-49.771 28.736-49.772-28.736v-57.47ZM1399.772 1206.897l49.771 28.735v57.471l-49.771 28.736-49.772-28.736v-57.47ZM1499.772 1206.897l49.771 28.735v57.471l-49.771 28.736-49.772-28.736v-57.47ZM1599.772 1206.897l49.771 28.735v57.471l-49.771 28.736-49.772-28.736v-57.47ZM1699.772 1206.897l49.771 28.735v57.471l-49.771 28.736-49.772-28.736v-57.47ZM1799.772 1206.897l49.771 28.735v57.471l-49.771 28.736-49.772-28.736v-57.47ZM1899.772 1206.897l49.771 28.735v57.471l-49.771 28.736-49.772-28.736v-57.47ZM1999.772 1206.897l49.771 28.735v57.471l-49.771 28.736-49.772-28.736v-57.47ZM49.772 1293.103l49.771 28.736v57.471l-49.771 28.736L0 1379.31v-57.47ZM149.772 1293.103l49.771 28.736v57.471l-49.771 28.736L100 1379.31v-57.47ZM249.772 1293.103l49.771 28.736v57.471l-49.771 28.736L200 1379.31v-57.47ZM349.772 1293.103l49.771 28.736v57.471l-49.771 28.736L300 1379.31v-57.47ZM449.772 1293.103l49.771 28.736v57.471l-49.771 28.736L400 1379.31v-57.47ZM549.772 1293.103l49.771 28.736v57.471l-49.771 28.736L500 1379.31v-57.47ZM649.772 1293.103l49.771 28.736v57.471l-49.771 28.736L600 1379.31v-57.47ZM749.772 1293.103l49.771 28.736v57.471l-49.771 28.736L700 1379.31v-57.47ZM849.772 1293.103l49.771 28.736v57.471l-49.771 28.736L800 1379.31v-57.47ZM949.772 1293.103l49.771 28.736v57.471l-49.771 28.736L900 1379.31v-57.47ZM1049.772 1293.103l49.771 28.736v57.471l-49.771 28.736L1000 1379.31v-57.47ZM1149.772 1293.103l49.771 28.736v57.471l-49.771 28.736L1100 1379.31v-57.47ZM1249.772 1293.103l49.771 28.736v57.471l-49.771 28.736L1200 1379.31v-57.47ZM1349.772 1293.103l49.771 28.736v57.471l-49.771 28.736L1300 1379.31v-57.47ZM1449.772 1293.103l49.771 28.736v57.471l-49.771 28.736L1400 1379.31v-57.47ZM1549.772 1293.103l49.771 28.736v57.471l-49.771 28.736L1500 1379.31v-57.47ZM1649.772 1293.103l49.771 28.736v57.471l-49.771 28.736L1600 1379.31v-57.47ZM1749.772 1293.103l49.771 28.736v57.471l-49.771 28.736L1700 1379.31v-57.47ZM1849.772 1293.103l49.771 28.736v57.471l-49.771 28.736L1800 1379.31v-57.47ZM1949.772 1293.103l49.771 28.736v57.471l-49.771 28.736L1900 1379.31v-57.47ZM99.772 1379.31l49.771 28.736v57.471l-49.771 28.736L50 1465.517v-57.471ZM199.772 1379.31l49.771 28.736v57.471l-49.771 28.736L150 1465.517v-57.471ZM299.772 1379.31l49.771 28.736v57.471l-49.771 28.736L250 1465.517v-57.471ZM399.772 1379.31l49.771 28.736v57.471l-49.771 28.736L350 1465.517v-57.471ZM499.772 1379.31l49.771 28.736v57.471l-49.771 28.736L450 1465.517v-57.471ZM599.772 1379.31l49.771 28.736v57.471l-49.771 28.736L550 1465.517v-57.471ZM699.772 1379.31l49.771 28.736v57.471l-49.771 28.736L650 1465.517v-57.471ZM799.772 1379.31l49.771 28.736v57.471l-49.771 28.736L750 1465.517v-57.471ZM899.772 1379.31l49.771 28.736v57.471l-49.771 28.736L850 1465.517v-57.471ZM999.772 1379.31l49.771 28.736v57.471l-49.771 28.736L950 1465.517v-57.471ZM1099.772 1379.31l49.771 28.736v57.471l-49.771 28.736-49.772-28.736v-57.471ZM1199.772 1379.31l49.771 28.736v57.471l-49.771 28.736-49.772-28.736v-57.471ZM1299.772 1379.31l49.771 28.736v57.471l-49.771 28.736-49.772-28.736v-57.471ZM1399.772 1379.31l49.771 28.736v57.471l-49.771 28.736-49.772-28.736v-57.471ZM1499.772 1379.31l49.771 28.736v57.471l-49.771 28.736-49.772-28.736v-57.471ZM1599.772 1379.31l49.771 28.736v57.471l-49.771 28.736-49.772-28.736v-57.471ZM1699.772 1379.31l49.771 28.736v57.471l-49.771 28.736-49.772-28.736v-57.471ZM1799.772 1379.31l49.771 28.736v57.471l-49.771 28.736-49.772-28.736v-57.471ZM1899.772 1379.31l49.771 28.736v57.471l-49.771 28.736-49.772-28.736v-57.471ZM1999.772 1379.31l49.771 28.736v57.471l-49.771 28.736-49.772-28.736v-57.471ZM49.772 1465.517l49.771 28.736v57.471l-49.771 28.736L0 1551.724v-57.471ZM149.772 1465.517l49.771 28.736v57.471l-49.771 28.736L100 1551.724v-57.471ZM249.772 1465.517l49.771 28.736v57.471l-49.771 28.736L200 1551.724v-57.471ZM349.772 1465.517l49.771 28.736v57.471l-49.771 28.736L300 1551.724v-57.471ZM449.772 1465.517l49.771 28.736v57.471l-49.771 28.736L400 1551.724v-57.471ZM549.772 1465.517l49.771 28.736v57.471l-49.771 28.736L500 1551.724v-57.471ZM649.772 1465.517l49.771 28.736v57.471l-49.771 28.736L600 1551.724v-57.471ZM749.772 1465.517l49.771 28.736v57.471l-49.771 28.736L700 1551.724v-57.471ZM849.772 1465.517l49.771 28.736v57.471l-49.771 28.736L800 1551.724v-57.471ZM949.772 1465.517l49.771 28.736v57.471l-49.771 28.736L900 1551.724v-57.471ZM1049.772 1465.517l49.771 28.736v57.471l-49.771 28.736-49.772-28.736v-57.471ZM1149.772 1465.517l49.771 28.736v57.471l-49.771 28.736-49.772-28.736v-57.471ZM1249.772 1465.517l49.771 28.736v57.471l-49.771 28.736-49.772-28.736v-57.471ZM1349.772 1465.517l49.771 28.736v57.471l-49.771 28.736-49.772-28.736v-57.471ZM1449.772 1465.517l49.771 28.736v57.471l-49.771 28.736-49.772-28.736v-57.471ZM1549.772 1465.517l49.771 28.736v57.471l-49.771 28.736-49.772-28.736v-57.471ZM1649.772 1465.517l49.771 28.736v57.471l-49.771 28.736-49.772-28.736v-57.471ZM1749.772 1465.517l49.771 28.736v57.471l-49.771 28.736-49.772-28.736v-57.471ZM1849.772 1465.517l49.771 28.736v57.471l-49.771 28.736-49.772-28.736v-57.471ZM1949.772 1465.517l49.771 28.736v57.471l-49.771 28.736-49.772-28.736v-57.471ZM99.772 1551.724l49.771 28.736v57.471l-49.771 28.736L50 1637.93v-57.471ZM199.772 1551.724l49.771 28.736v57.471l-49.771 28.736L150 1637.93v-57.471ZM299.772 1551.724l49.771 28.736v57.471l-49.771 28.736L250 1637.93v-57.471ZM399.772 1551.724l49.771 28.736v57.471l-49.771 28.736L350 1637.93v-57.471ZM499.772 1551.724l49.771 28.736v57.471l-49.771 28.736L450 1637.93v-57.471ZM599.772 1551.724l49.771 28.736v57.471l-49.771 28.736L550 1637.93v-57.471ZM699.772 1551.724l49.771 28.736v57.471l-49.771 28.736L650 1637.93v-57.471ZM799.772 1551.724l49.771 28.736v57.471l-49.771 28.736L750 1637.93v-57.471ZM899.772 1551.724l49.771 28.736v57.471l-49.771 28.736L850 1637.93v-57.471ZM999.772 1551.724l49.771 28.736v57.471l-49.771 28.736L950 1637.93v-57.471ZM1099.772 1551.724l49.771 28.736v57.471l-49.771 28.736L1050 1637.93v-57.471ZM1199.772 1551.724l49.771 28.736v57.471l-49.771 28.736L1150 1637.93v-57.471ZM1299.772 1551.724l49.771 28.736v57.471l-49.771 28.736L1250 1637.93v-57.471ZM1399.772 1551.724l49.771 28.736v57.471l-49.771 28.736L1350 1637.93v-57.471ZM1499.772 1551.724l49.771 28.736v57.471l-49.771 28.736L1450 1637.93v-57.471ZM1599.772 1551.724l49.771 28.736v57.471l-49.771 28.736L1550 1637.93v-57.471ZM1699.772 1551.724l49.771 28.736v57.471l-49.771 28.736L1650 1637.93v-57.471ZM1799.772 1551.724l49.771 28.736v57.471l-49.771 28.736L1750 1637.93v-57.471ZM1899.772 1551.724l49.771 28.736v57.471l-49.771 28.736L1850 1637.93v-57.471ZM1999.772 1551.724l49.771 28.736v57.471l-49.771 28.736L1950 1637.93v-57.471ZM49.772 1637.931l49.771 28.736v57.47l-49.771 28.737L0 1724.138v-57.471ZM149.772 1637.931l49.771 28.736v57.47l-49.771 28.737L100 1724.138v-57.471ZM249.772 1637.931l49.771 28.736v57.47l-49.771 28.737L200 1724.138v-57.471ZM349.772 1637.931l49.771 28.736v57.47l-49.771 28.737L300 1724.138v-57.471ZM449.772 1637.931l49.771 28.736v57.47l-49.771 28.737L400 1724.138v-57.471ZM549.772 1637.931l49.771 28.736v57.47l-49.771 28.737L500 1724.138v-57.471ZM649.772 1637.931l49.771 28.736v57.47l-49.771 28.737L600 1724.138v-57.471ZM749.772 1637.931l49.771 28.736v57.47l-49.771 28.737L700 1724.138v-57.471ZM849.772 1637.931l49.771 28.736v57.47l-49.771 28.737L800 1724.138v-57.471ZM949.772 1637.931l49.771 28.736v57.47l-49.771 28.737L900 1724.138v-57.471ZM1049.772 1637.931l49.771 28.736v57.47l-49.771 28.737-49.772-28.736v-57.471ZM1149.772 1637.931l49.771 28.736v57.47l-49.771 28.737-49.772-28.736v-57.471ZM1249.772 1637.931l49.771 28.736v57.47l-49.771 28.737-49.772-28.736v-57.471ZM1349.772 1637.931l49.771 28.736v57.47l-49.771 28.737-49.772-28.736v-57.471ZM1449.772 1637.931l49.771 28.736v57.47l-49.771 28.737-49.772-28.736v-57.471ZM1549.772 1637.931l49.771 28.736v57.47l-49.771 28.737-49.772-28.736v-57.471ZM1649.772 1637.931l49.771 28.736v57.47l-49.771 28.737-49.772-28.736v-57.471ZM1749.772 1637.931l49.771 28.736v57.47l-49.771 28.737-49.772-28.736v-57.471ZM1849.772 1637.931l49.771 28.736v57.47l-49.771 28.737-49.772-28.736v-57.471ZM1949.772 1637.931l49.771 28.736v57.47l-49.771 28.737-49.772-28.736v-57.471ZM99.772 1724.138l49.771 28.736v57.47l-49.771 28.736L50 1810.345v-57.471ZM199.772 1724.138l49.771 28.736v57.47l-49.771 28.736L150 1810.345v-57.471ZM299.772 1724.138l49.771 28.736v57.47l-49.771 28.736L250 1810.345v-57.471ZM399.772 1724.138l49.771 28.736v57.47l-49.771 28.736L350 1810.345v-57.471ZM499.772 1724.138l49.771 28.736v57.47l-49.771 28.736L450 1810.345v-57.471ZM599.772 1724.138l49.771 28.736v57.47l-49.771 28.736L550 1810.345v-57.471ZM699.772 1724.138l49.771 28.736v57.47l-49.771 28.736L650 1810.345v-57.471ZM799.772 1724.138l49.771 28.736v57.47l-49.771 28.736L750 1810.345v-57.471ZM899.772 1724.138l49.771 28.736v57.47l-49.771 28.736L850 1810.345v-57.471ZM999.772 1724.138l49.771 28.736v57.47l-49.771 28.736L950 1810.345v-57.471ZM1099.772 1724.138l49.771 28.736v57.47l-49.771 28.736-49.772-28.735v-57.471ZM1199.772 1724.138l49.771 28.736v57.47l-49.771 28.736-49.772-28.735v-57.471ZM1299.772 1724.138l49.771 28.736v57.47l-49.771 28.736-49.772-28.735v-57.471ZM1399.772 1724.138l49.771 28.736v57.47l-49.771 28.736-49.772-28.735v-57.471ZM1499.772 1724.138l49.771 28.736v57.47l-49.771 28.736-49.772-28.735v-57.471ZM1599.772 1724.138l49.771 28.736v57.47l-49.771 28.736-49.772-28.735v-57.471ZM1699.772 1724.138l49.771 28.736v57.47l-49.771 28.736-49.772-28.735v-57.471ZM1799.772 1724.138l49.771 28.736v57.47l-49.771 28.736-49.772-28.735v-57.471ZM1899.772 1724.138l49.771 28.736v57.47l-49.771 28.736-49.772-28.735v-57.471ZM1999.772 1724.138l49.771 28.736v57.47l-49.771 28.736-49.772-28.735v-57.471ZM49.772 1810.345l49.771 28.735v57.472l-49.771 28.735L0 1896.552v-57.472ZM149.772 1810.345l49.771 28.735v57.472l-49.771 28.735L100 1896.552v-57.472ZM249.772 1810.345l49.771 28.735v57.472l-49.771 28.735L200 1896.552v-57.472ZM349.772 1810.345l49.771 28.735v57.472l-49.771 28.735L300 1896.552v-57.472ZM449.772 1810.345l49.771 28.735v57.472l-49.771 28.735L400 1896.552v-57.472ZM549.772 1810.345l49.771 28.735v57.472l-49.771 28.735L500 1896.552v-57.472ZM649.772 1810.345l49.771 28.735v57.472l-49.771 28.735L600 1896.552v-57.472ZM749.772 1810.345l49.771 28.735v57.472l-49.771 28.735L700 1896.552v-57.472ZM849.772 1810.345l49.771 28.735v57.472l-49.771 28.735L800 1896.552v-57.472ZM949.772 1810.345l49.771 28.735v57.472l-49.771 28.735L900 1896.552v-57.472ZM1049.772 1810.345l49.771 28.735v57.472l-49.771 28.735-49.772-28.735v-57.472ZM1149.772 1810.345l49.771 28.735v57.472l-49.771 28.735-49.772-28.735v-57.472ZM1249.772 1810.345l49.771 28.735v57.472l-49.771 28.735-49.772-28.735v-57.472ZM1349.772 1810.345l49.771 28.735v57.472l-49.771 28.735-49.772-28.735v-57.472ZM1449.772 1810.345l49.771 28.735v57.472l-49.771 28.735-49.772-28.735v-57.472ZM1549.772 1810.345l49.771 28.735v57.472l-49.771 28.735-49.772-28.735v-57.472ZM1649.772 1810.345l49.771 28.735v57.472l-49.771 28.735-49.772-28.735v-57.472ZM1749.772 1810.345l49.771 28.735v57.472l-49.771 28.735-49.772-28.735v-57.472ZM1849.772 1810.345l49.771 28.735v57.472l-49.771 28.735-49.772-28.735v-57.472ZM1949.772 1810.345l49.771 28.735v57.472l-49.771 28.735-49.772-28.735v-57.472ZM99.772 1896.552l49.771 28.735v57.472l-49.771 28.735L50 1982.76v-57.472ZM199.772 1896.552l49.771 28.735v57.472l-49.771 28.735L150 1982.76v-57.472ZM299.772 1896.552l49.771 28.735v57.472l-49.771 28.735L250 1982.76v-57.472ZM399.772 1896.552l49.771 28.735v57.472l-49.771 28.735L350 1982.76v-57.472ZM499.772 1896.552l49.771 28.735v57.472l-49.771 28.735L450 1982.76v-57.472ZM599.772 1896.552l49.771 28.735v57.472l-49.771 28.735L550 1982.76v-57.472ZM699.772 1896.552l49.771 28.735v57.472l-49.771 28.735L650 1982.76v-57.472ZM799.772 1896.552l49.771 28.735v57.472l-49.771 28.735L750 1982.76v-57.472ZM899.772 1896.552l49.771 28.735v57.472l-49.771 28.735L850 1982.76v-57.472ZM999.772 1896.552l49.771 28.735v57.472l-49.771 28.735L950 1982.76v-57.472ZM1099.772 1896.552l49.771 28.735v57.472l-49.771 28.735L1050 1982.76v-57.472ZM1199.772 1896.552l49.771 28.735v57.472l-49.771 28.735L1150 1982.76v-57.472ZM1299.772 1896.552l49.771 28.735v57.472l-49.771 28.735L1250 1982.76v-57.472ZM1399.772 1896.552l49.771 28.735v57.472l-49.771 28.735L1350 1982.76v-57.472ZM1499.772 1896.552l49.771 28.735v57.472l-49.771 28.735L1450 1982.76v-57.472ZM1599.772 1896.552l49.771 28.735v57.472l-49.771 28.735L1550 1982.76v-57.472ZM1699.772 1896.552l49.771 28.735v57.472l-49.771 28.735L1650 1982.76v-57.472ZM1799.772 1896.552l49.771 28.735v57.472l-49.771 28.735L1750 1982.76v-57.472ZM1899.772 1896.552l49.771 28.735v57.472l-49.771 28.735L1850 1982.76v-57.472ZM1999.772 1896.552l49.771 28.735v57.472l-49.771 28.735L1950 1982.76v-57.472ZM49.772 1982.759l49.771 28.735v57.472L49.772 2097.7 0 2068.966v-57.472ZM149.772 1982.759l49.771 28.735v57.472l-49.771 28.735L100 2068.966v-57.472ZM249.772 1982.759l49.771 28.735v57.472l-49.771 28.735L200 2068.966v-57.472ZM349.772 1982.759l49.771 28.735v57.472l-49.771 28.735L300 2068.966v-57.472ZM449.772 1982.759l49.771 28.735v57.472l-49.771 28.735L400 2068.966v-57.472ZM549.772 1982.759l49.771 28.735v57.472l-49.771 28.735L500 2068.966v-57.472ZM649.772 1982.759l49.771 28.735v57.472l-49.771 28.735L600 2068.966v-57.472ZM749.772 1982.759l49.771 28.735v57.472l-49.771 28.735L700 2068.966v-57.472ZM849.772 1982.759l49.771 28.735v57.472l-49.771 28.735L800 2068.966v-57.472ZM949.772 1982.759l49.771 28.735v57.472l-49.771 28.735L900 2068.966v-57.472ZM1049.772 1982.759l49.771 28.735v57.472l-49.771 28.735-49.772-28.735v-57.472ZM1149.772 1982.759l49.771 28.735v57.472l-49.771 28.735-49.772-28.735v-57.472ZM1249.772 1982.759l49.771 28.735v57.472l-49.771 28.735-49.772-28.735v-57.472ZM1349.772 1982.759l49.771 28.735v57.472l-49.771 28.735-49.772-28.735v-57.472ZM1449.772 1982.759l49.771 28.735v57.472l-49.771 28.735-49.772-28.735v-57.472ZM1549.772 1982.759l49.771 28.735v57.472l-49.771 28.735-49.772-28.735v-57.472ZM1649.772 1982.759l49.771 28.735v57.472l-49.771 28.735-49.772-28.735v-57.472ZM1749.772 1982.759l49.771 28.735v57.472l-49.771 28.735-49.772-28.735v-57.472ZM1849.772 1982.759l49.771 28.735v57.472l-49.771 28.735-49.772-28.735v-57.472ZM1949.772 1982.759l49.771 28.735v57.472l-49.771 28.735-49.772-28.735v-57.472ZM99.772 2068.966l49.771 28.735v57.471l-49.771 28.736L50 2155.172v-57.47ZM199.772 2068.966l49.771 28.735v57.471l-49.771 28.736L150 2155.172v-57.47ZM299.772 2068.966l49.771 28.735v57.471l-49.771 28.736L250 2155.172v-57.47ZM399.772 2068.966l49.771 28.735v57.471l-49.771 28.736L350 2155.172v-57.47ZM499.772 2068.966l49.771 28.735v57.471l-49.771 28.736L450 2155.172v-57.47ZM599.772 2068.966l49.771 28.735v57.471l-49.771 28.736L550 2155.172v-57.47ZM699.772 2068.966l49.771 28.735v57.471l-49.771 28.736L650 2155.172v-57.47ZM799.772 2068.966l49.771 28.735v57.471l-49.771 28.736L750 2155.172v-57.47ZM899.772 2068.966l49.771 28.735v57.471l-49.771 28.736L850 2155.172v-57.47ZM999.772 2068.966l49.771 28.735v57.471l-49.771 28.736L950 2155.172v-57.47ZM1099.772 2068.966l49.771 28.735v57.471l-49.771 28.736-49.772-28.736v-57.47ZM1199.772 2068.966l49.771 28.735v57.471l-49.771 28.736-49.772-28.736v-57.47ZM1299.772 2068.966l49.771 28.735v57.471l-49.771 28.736-49.772-28.736v-57.47ZM1399.772 2068.966l49.771 28.735v57.471l-49.771 28.736-49.772-28.736v-57.47ZM1499.772 2068.966l49.771 28.735v57.471l-49.771 28.736-49.772-28.736v-57.47ZM1599.772 2068.966l49.771 28.735v57.471l-49.771 28.736-49.772-28.736v-57.47ZM1699.772 2068.966l49.771 28.735v57.471l-49.771 28.736-49.772-28.736v-57.47ZM1799.772 2068.966l49.771 28.735v57.471l-49.771 28.736-49.772-28.736v-57.47ZM1899.772 2068.966l49.771 28.735v57.471l-49.771 28.736-49.772-28.736v-57.47ZM1999.772 2068.966l49.771 28.735v57.471l-49.771 28.736-49.772-28.736v-57.47ZM49.772 2155.172l49.771 28.736v57.471l-49.771 28.736L0 2241.379v-57.471ZM149.772 2155.172l49.771 28.736v57.471l-49.771 28.736L100 2241.379v-57.471ZM249.772 2155.172l49.771 28.736v57.471l-49.771 28.736L200 2241.379v-57.471ZM349.772 2155.172l49.771 28.736v57.471l-49.771 28.736L300 2241.379v-57.471ZM449.772 2155.172l49.771 28.736v57.471l-49.771 28.736L400 2241.379v-57.471ZM549.772 2155.172l49.771 28.736v57.471l-49.771 28.736L500 2241.379v-57.471ZM649.772 2155.172l49.771 28.736v57.471l-49.771 28.736L600 2241.379v-57.471ZM749.772 2155.172l49.771 28.736v57.471l-49.771 28.736L700 2241.379v-57.471ZM849.772 2155.172l49.771 28.736v57.471l-49.771 28.736L800 2241.379v-57.471ZM949.772 2155.172l49.771 28.736v57.471l-49.771 28.736L900 2241.379v-57.471ZM1049.772 2155.172l49.771 28.736v57.471l-49.771 28.736-49.772-28.736v-57.471ZM1149.772 2155.172l49.771 28.736v57.471l-49.771 28.736-49.772-28.736v-57.471ZM1249.772 2155.172l49.771 28.736v57.471l-49.771 28.736-49.772-28.736v-57.471ZM1349.772 2155.172l49.771 28.736v57.471l-49.771 28.736-49.772-28.736v-57.471ZM1449.772 2155.172l49.771 28.736v57.471l-49.771 28.736-49.772-28.736v-57.471ZM1549.772 2155.172l49.771 28.736v57.471l-49.771 28.736-49.772-28.736v-57.471ZM1649.772 2155.172l49.771 28.736v57.471l-49.771 28.736-49.772-28.736v-57.471ZM1749.772 2155.172l49.771 28.736v57.471l-49.771 28.736-49.772-28.736v-57.471ZM1849.772 2155.172l49.771 28.736v57.471l-49.771 28.736-49.772-28.736v-57.471ZM1949.772 2155.172l49.771 28.736v57.471l-49.771 28.736-49.772-28.736v-57.471ZM99.772 2241.38l49.771 28.735v57.471l-49.771 28.736L50 2327.586v-57.471ZM199.772 2241.38l49.771 28.735v57.471l-49.771 28.736L150 2327.586v-57.471ZM299.772 2241.38l49.771 28.735v57.471l-49.771 28.736L250 2327.586v-57.471ZM399.772 2241.38l49.771 28.735v57.471l-49.771 28.736L350 2327.586v-57.471ZM499.772 2241.38l49.771 28.735v57.471l-49.771 28.736L450 2327.586v-57.471ZM599.772 2241.38l49.771 28.735v57.471l-49.771 28.736L550 2327.586v-57.471ZM699.772 2241.38l49.771 28.735v57.471l-49.771 28.736L650 2327.586v-57.471ZM799.772 2241.38l49.771 28.735v57.471l-49.771 28.736L750 2327.586v-57.471ZM899.772 2241.38l49.771 28.735v57.471l-49.771 28.736L850 2327.586v-57.471ZM999.772 2241.38l49.771 28.735v57.471l-49.771 28.736L950 2327.586v-57.471ZM1099.772 2241.38l49.771 28.735v57.471l-49.771 28.736-49.772-28.736v-57.471ZM1199.772 2241.38l49.771 28.735v57.471l-49.771 28.736-49.772-28.736v-57.471ZM1299.772 2241.38l49.771 28.735v57.471l-49.771 28.736-49.772-28.736v-57.471ZM1399.772 2241.38l49.771 28.735v57.471l-49.771 28.736-49.772-28.736v-57.471ZM1499.772 2241.38l49.771 28.735v57.471l-49.771 28.736-49.772-28.736v-57.471ZM1599.772 2241.38l49.771 28.735v57.471l-49.771 28.736-49.772-28.736v-57.471ZM1699.772 2241.38l49.771 28.735v57.471l-49.771 28.736-49.772-28.736v-57.471ZM1799.772 2241.38l49.771 28.735v57.471l-49.771 28.736-49.772-28.736v-57.471ZM1899.772 2241.38l49.771 28.735v57.471l-49.771 28.736-49.772-28.736v-57.471ZM1999.772 2241.38l49.771 28.735v57.471l-49.771 28.736-49.772-28.736v-57.471ZM49.772 2327.586l49.771 28.736v57.471l-49.771 28.736L0 2413.793v-57.471ZM149.772 2327.586l49.771 28.736v57.471l-49.771 28.736L100 2413.793v-57.471ZM249.772 2327.586l49.771 28.736v57.471l-49.771 28.736L200 2413.793v-57.471ZM349.772 2327.586l49.771 28.736v57.471l-49.771 28.736L300 2413.793v-57.471ZM449.772 2327.586l49.771 28.736v57.471l-49.771 28.736L400 2413.793v-57.471ZM549.772 2327.586l49.771 28.736v57.471l-49.771 28.736L500 2413.793v-57.471ZM649.772 2327.586l49.771 28.736v57.471l-49.771 28.736L600 2413.793v-57.471ZM749.772 2327.586l49.771 28.736v57.471l-49.771 28.736L700 2413.793v-57.471ZM849.772 2327.586l49.771 28.736v57.471l-49.771 28.736L800 2413.793v-57.471ZM949.772 2327.586l49.771 28.736v57.471l-49.771 28.736L900 2413.793v-57.471ZM1049.772 2327.586l49.771 28.736v57.471l-49.771 28.736-49.772-28.736v-57.471ZM1149.772 2327.586l49.771 28.736v57.471l-49.771 28.736-49.772-28.736v-57.471ZM1249.772 2327.586l49.771 28.736v57.471l-49.771 28.736-49.772-28.736v-57.471ZM1349.772 2327.586l49.771 28.736v57.471l-49.771 28.736-49.772-28.736v-57.471ZM1449.772 2327.586l49.771 28.736v57.471l-49.771 28.736-49.772-28.736v-57.471ZM1549.772 2327.586l49.771 28.736v57.471l-49.771 28.736-49.772-28.736v-57.471ZM1649.772 2327.586l49.771 28.736v57.471l-49.771 28.736-49.772-28.736v-57.471ZM1749.772 2327.586l49.771 28.736v57.471l-49.771 28.736-49.772-28.736v-57.471ZM1849.772 2327.586l49.771 28.736v57.471l-49.771 28.736-49.772-28.736v-57.471ZM1949.772 2327.586l49.771 28.736v57.471l-49.771 28.736-49.772-28.736v-57.471ZM99.772 2413.793l49.771 28.736V2500l-49.771 28.736L50 2500v-57.471ZM199.772 2413.793l49.771 28.736V2500l-49.771 28.736L150 2500v-57.471ZM299.772 2413.793l49.771 28.736V2500l-49.771 28.736L250 2500v-57.471ZM399.772 2413.793l49.771 28.736V2500l-49.771 28.736L350 2500v-57.471ZM499.772 2413.793l49.771 28.736V2500l-49.771 28.736L450 2500v-57.471ZM599.772 2413.793l49.771 28.736V2500l-49.771 28.736L550 2500v-57.471ZM699.772 2413.793l49.771 28.736V2500l-49.771 28.736L650 2500v-57.471ZM799.772 2413.793l49.771 28.736V2500l-49.771 28.736L750 2500v-57.471ZM899.772 2413.793l49.771 28.736V2500l-49.771 28.736L850 2500v-57.471ZM999.772 2413.793l49.771 28.736V2500l-49.771 28.736L950 2500v-57.471ZM1099.772 2413.793l49.771 28.736V2500l-49.771 28.736L1050 2500v-57.471ZM1199.772 2413.793l49.771 28.736V2500l-49.771 28.736L1150 2500v-57.471ZM1299.772 2413.793l49.771 28.736V2500l-49.771 28.736L1250 2500v-57.471ZM1399.772 2413.793l49.771 28.736V2500l-49.771 28.736L1350 2500v-57.471ZM1499.772 2413.793l49.771 28.736V2500l-49.771 28.736L1450 2500v-57.471ZM1599.772 2413.793l49.771 28.736V2500l-49.771 28.736L1550 2500v-57.471ZM1699.772 2413.793l49.771 28.736V2500l-49.771 28.736L1650 2500v-57.471ZM1799.772 2413.793l49.771 28.736V2500l-49.771 28.736L1750 2500v-57.471ZM1899.772 2413.793l49.771 28.736V2500l-49.771 28.736L1850 2500v-57.471ZM1999.772 2413.793l49.771 28.736V2500l-49.771 28.736L1950 2500v-57.471ZM49.772 2500l49.771 28.736v57.47l-49.771 28.737L0 2586.207v-57.471ZM149.772 2500l49.771 28.736v57.47l-49.771 28.737L100 2586.207v-57.471ZM249.772 2500l49.771 28.736v57.47l-49.771 28.737L200 2586.207v-57.471ZM349.772 2500l49.771 28.736v57.47l-49.771 28.737L300 2586.207v-57.471ZM449.772 2500l49.771 28.736v57.47l-49.771 28.737L400 2586.207v-57.471ZM549.772 2500l49.771 28.736v57.47l-49.771 28.737L500 2586.207v-57.471ZM649.772 2500l49.771 28.736v57.47l-49.771 28.737L600 2586.207v-57.471ZM749.772 2500l49.771 28.736v57.47l-49.771 28.737L700 2586.207v-57.471ZM849.772 2500l49.771 28.736v57.47l-49.771 28.737L800 2586.207v-57.471ZM949.772 2500l49.771 28.736v57.47l-49.771 28.737L900 2586.207v-57.471ZM1049.772 2500l49.771 28.736v57.47l-49.771 28.737-49.772-28.736v-57.471ZM1149.772 2500l49.771 28.736v57.47l-49.771 28.737-49.772-28.736v-57.471ZM1249.772 2500l49.771 28.736v57.47l-49.771 28.737-49.772-28.736v-57.471ZM1349.772 2500l49.771 28.736v57.47l-49.771 28.737-49.772-28.736v-57.471ZM1449.772 2500l49.771 28.736v57.47l-49.771 28.737-49.772-28.736v-57.471ZM1549.772 2500l49.771 28.736v57.47l-49.771 28.737-49.772-28.736v-57.471ZM1649.772 2500l49.771 28.736v57.47l-49.771 28.737-49.772-28.736v-57.471ZM1749.772 2500l49.771 28.736v57.47l-49.771 28.737-49.772-28.736v-57.471ZM1849.772 2500l49.771 28.736v57.47l-49.771 28.737-49.772-28.736v-57.471ZM1949.772 2500l49.771 28.736v57.47l-49.771 28.737-49.772-28.736v-57.471ZM99.772 2586.207l49.771 28.736v57.47l-49.771 28.736L50 2672.414v-57.471ZM199.772 2586.207l49.771 28.736v57.47l-49.771 28.736L150 2672.414v-57.471ZM299.772 2586.207l49.771 28.736v57.47l-49.771 28.736L250 2672.414v-57.471ZM399.772 2586.207l49.771 28.736v57.47l-49.771 28.736L350 2672.414v-57.471ZM499.772 2586.207l49.771 28.736v57.47l-49.771 28.736L450 2672.414v-57.471ZM599.772 2586.207l49.771 28.736v57.47l-49.771 28.736L550 2672.414v-57.471ZM699.772 2586.207l49.771 28.736v57.47l-49.771 28.736L650 2672.414v-57.471ZM799.772 2586.207l49.771 28.736v57.47l-49.771 28.736L750 2672.414v-57.471ZM899.772 2586.207l49.771 28.736v57.47l-49.771 28.736L850 2672.414v-57.471ZM999.772 2586.207l49.771 28.736v57.47l-49.771 28.736L950 2672.414v-57.471ZM1099.772 2586.207l49.771 28.736v57.47l-49.771 28.736-49.772-28.735v-57.471ZM1199.772 2586.207l49.771 28.736v57.47l-49.771 28.736-49.772-28.735v-57.471ZM1299.772 2586.207l49.771 28.736v57.47l-49.771 28.736-49.772-28.735v-57.471ZM1399.772 2586.207l49.771 28.736v57.47l-49.771 28.736-49.772-28.735v-57.471ZM1499.772 2586.207l49.771 28.736v57.47l-49.771 28.736-49.772-28.735v-57.471ZM1599.772 2586.207l49.771 28.736v57.47l-49.771 28.736-49.772-28.735v-57.471ZM1699.772 2586.207l49.771 28.736v57.47l-49.771 28.736-49.772-28.735v-57.471ZM1799.772 2586.207l49.771 28.736v57.47l-49.771 28.736-49.772-28.735v-57.471ZM1899.772 2586.207l49.771 28.736v57.47l-49.771 28.736-49.772-28.735v-57.471ZM1999.772 2586.207l49.771 28.736v57.47l-49.771 28.736-49.772-28.735v-57.471ZM49.772 2672.414l49.771 28.735v57.472l-49.771 28.735L0 2758.621v-57.472ZM149.772 2672.414l49.771 28.735v57.472l-49.771 28.735L100 2758.621v-57.472ZM249.772 2672.414l49.771 28.735v57.472l-49.771 28.735L200 2758.621v-57.472ZM349.772 2672.414l49.771 28.735v57.472l-49.771 28.735L300 2758.621v-57.472ZM449.772 2672.414l49.771 28.735v57.472l-49.771 28.735L400 2758.621v-57.472ZM549.772 2672.414l49.771 28.735v57.472l-49.771 28.735L500 2758.621v-57.472ZM649.772 2672.414l49.771 28.735v57.472l-49.771 28.735L600 2758.621v-57.472ZM749.772 2672.414l49.771 28.735v57.472l-49.771 28.735L700 2758.621v-57.472ZM849.772 2672.414l49.771 28.735v57.472l-49.771 28.735L800 2758.621v-57.472ZM949.772 2672.414l49.771 28.735v57.472l-49.771 28.735L900 2758.621v-57.472ZM1049.772 2672.414l49.771 28.735v57.472l-49.771 28.735-49.772-28.735v-57.472ZM1149.772 2672.414l49.771 28.735v57.472l-49.771 28.735-49.772-28.735v-57.472ZM1249.772 2672.414l49.771 28.735v57.472l-49.771 28.735-49.772-28.735v-57.472ZM1349.772 2672.414l49.771 28.735v57.472l-49.771 28.735-49.772-28.735v-57.472ZM1449.772 2672.414l49.771 28.735v57.472l-49.771 28.735-49.772-28.735v-57.472ZM1549.772 2672.414l49.771 28.735v57.472l-49.771 28.735-49.772-28.735v-57.472ZM1649.772 2672.414l49.771 28.735v57.472l-49.771 28.735-49.772-28.735v-57.472ZM1749.772 2672.414l49.771 28.735v57.472l-49.771 28.735-49.772-28.735v-57.472ZM1849.772 2672.414l49.771 28.735v57.472l-49.771 28.735-49.772-28.735v-57.472ZM1949.772 2672.414l49.771 28.735v57.472l-49.771 28.735-49.772-28.735v-57.472ZM99.772 2758.62l49.771 28.736v57.472l-49.771 28.735L50 2844.828v-57.472ZM199.772 2758.62l49.771 28.736v57.472l-49.771 28.735L150 2844.828v-57.472ZM299.772 2758.62l49.771 28.736v57.472l-49.771 28.735L250 2844.828v-57.472ZM399.772 2758.62l49.771 28.736v57.472l-49.771 28.735L350 2844.828v-57.472ZM499.772 2758.62l49.771 28.736v57.472l-49.771 28.735L450 2844.828v-57.472ZM599.772 2758.62l49.771 28.736v57.472l-49.771 28.735L550 2844.828v-57.472ZM699.772 2758.62l49.771 28.736v57.472l-49.771 28.735L650 2844.828v-57.472ZM799.772 2758.62l49.771 28.736v57.472l-49.771 28.735L750 2844.828v-57.472ZM899.772 2758.62l49.771 28.736v57.472l-49.771 28.735L850 2844.828v-57.472ZM999.772 2758.62l49.771 28.736v57.472l-49.771 28.735L950 2844.828v-57.472ZM1099.772 2758.62l49.771 28.736v57.472l-49.771 28.735-49.772-28.735v-57.472ZM1199.772 2758.62l49.771 28.736v57.472l-49.771 28.735-49.772-28.735v-57.472ZM1299.772 2758.62l49.771 28.736v57.472l-49.771 28.735-49.772-28.735v-57.472ZM1399.772 2758.62l49.771 28.736v57.472l-49.771 28.735-49.772-28.735v-57.472ZM1499.772 2758.62l49.771 28.736v57.472l-49.771 28.735-49.772-28.735v-57.472ZM1599.772 2758.62l49.771 28.736v57.472l-49.771 28.735-49.772-28.735v-57.472ZM1699.772 2758.62l49.771 28.736v57.472l-49.771 28.735-49.772-28.735v-57.472ZM1799.772 2758.62l49.771 28.736v57.472l-49.771 28.735-49.772-28.735v-57.472ZM1899.772 2758.62l49.771 28.736v57.472l-49.771 28.735-49.772-28.735v-57.472ZM1999.772 2758.62l49.771 28.736v57.472l-49.771 28.735-49.772-28.735v-57.472ZM49.772 2844.828l49.771 28.735v57.471l-49.771 28.736L0 2931.034v-57.47ZM149.772 2844.828l49.771 28.735v57.471l-49.771 28.736L100 2931.034v-57.47ZM249.772 2844.828l49.771 28.735v57.471l-49.771 28.736L200 2931.034v-57.47ZM349.772 2844.828l49.771 28.735v57.471l-49.771 28.736L300 2931.034v-57.47ZM449.772 2844.828l49.771 28.735v57.471l-49.771 28.736L400 2931.034v-57.47ZM549.772 2844.828l49.771 28.735v57.471l-49.771 28.736L500 2931.034v-57.47ZM649.772 2844.828l49.771 28.735v57.471l-49.771 28.736L600 2931.034v-57.47ZM749.772 2844.828l49.771 28.735v57.471l-49.771 28.736L700 2931.034v-57.47ZM849.772 2844.828l49.771 28.735v57.471l-49.771 28.736L800 2931.034v-57.47ZM949.772 2844.828l49.771 28.735v57.471l-49.771 28.736L900 2931.034v-57.47ZM1049.772 2844.828l49.771 28.735v57.471l-49.771 28.736-49.772-28.736v-57.47ZM1149.772 2844.828l49.771 28.735v57.471l-49.771 28.736-49.772-28.736v-57.47ZM1249.772 2844.828l49.771 28.735v57.471l-49.771 28.736-49.772-28.736v-57.47ZM1349.772 2844.828l49.771 28.735v57.471l-49.771 28.736-49.772-28.736v-57.47ZM1449.772 2844.828l49.771 28.735v57.471l-49.771 28.736-49.772-28.736v-57.47ZM1549.772 2844.828l49.771 28.735v57.471l-49.771 28.736-49.772-28.736v-57.47ZM1649.772 2844.828l49.771 28.735v57.471l-49.771 28.736-49.772-28.736v-57.47ZM1749.772 2844.828l49.771 28.735v57.471l-49.771 28.736-49.772-28.736v-57.47ZM1849.772 2844.828l49.771 28.735v57.471l-49.771 28.736-49.772-28.736v-57.47ZM1949.772 2844.828l49.771 28.735v57.471l-49.771 28.736-49.772-28.736v-57.47ZM99.772 2931.034l49.771 28.736v57.471l-49.771 28.736L50 3017.241v-57.47ZM199.772 2931.034l49.771 28.736v57.471l-49.771 28.736L150 3017.241v-57.47ZM299.772 2931.034l49.771 28.736v57.471l-49.771 28.736L250 3017.241v-57.47ZM399.772 2931.034l49.771 28.736v57.471l-49.771 28.736L350 3017.241v-57.47ZM499.772 2931.034l49.771 28.736v57.471l-49.771 28.736L450 3017.241v-57.47ZM599.772 2931.034l49.771 28.736v57.471l-49.771 28.736L550 3017.241v-57.47ZM699.772 2931.034l49.771 28.736v57.471l-49.771 28.736L650 3017.241v-57.47ZM799.772 2931.034l49.771 28.736v57.471l-49.771 28.736L750 3017.241v-57.47ZM899.772 2931.034l49.771 28.736v57.471l-49.771 28.736L850 3017.241v-57.47ZM999.772 2931.034l49.771 28.736v57.471l-49.771 28.736L950 3017.241v-57.47ZM1099.772 2931.034l49.771 28.736v57.471l-49.771 28.736-49.772-28.736v-57.47ZM1199.772 2931.034l49.771 28.736v57.471l-49.771 28.736-49.772-28.736v-57.47ZM1299.772 2931.034l49.771 28.736v57.471l-49.771 28.736-49.772-28.736v-57.47ZM1399.772 2931.034l49.771 28.736v57.471l-49.771 28.736-49.772-28.736v-57.47ZM1499.772 2931.034l49.771 28.736v57.471l-49.771 28.736-49.772-28.736v-57.47ZM1599.772 2931.034l49.771 28.736v57.471l-49.771 28.736-49.772-28.736v-57.47ZM1699.772 2931.034l49.771 28.736v57.471l-49.771 28.736-49.772-28.736v-57.47ZM1799.772 2931.034l49.771 28.736v57.471l-49.771 28.736-49.772-28.736v-57.47ZM1899.772 2931.034l49.771 28.736v57.471l-49.771 28.736-49.772-28.736v-57.47ZM1999.772 2931.034l49.771 28.736v57.471l-49.771 28.736-49.772-28.736v-57.47ZM49.772 3017.241l49.771 28.736v57.471l-49.771 28.736L0 3103.448v-57.471ZM149.772 3017.241l49.771 28.736v57.471l-49.771 28.736L100 3103.448v-57.471ZM249.772 3017.241l49.771 28.736v57.471l-49.771 28.736L200 3103.448v-57.471ZM349.772 3017.241l49.771 28.736v57.471l-49.771 28.736L300 3103.448v-57.471ZM449.772 3017.241l49.771 28.736v57.471l-49.771 28.736L400 3103.448v-57.471ZM549.772 3017.241l49.771 28.736v57.471l-49.771 28.736L500 3103.448v-57.471ZM649.772 3017.241l49.771 28.736v57.471l-49.771 28.736L600 3103.448v-57.471ZM749.772 3017.241l49.771 28.736v57.471l-49.771 28.736L700 3103.448v-57.471ZM849.772 3017.241l49.771 28.736v57.471l-49.771 28.736L800 3103.448v-57.471ZM949.772 3017.241l49.771 28.736v57.471l-49.771 28.736L900 3103.448v-57.471ZM1049.772 3017.241l49.771 28.736v57.471l-49.771 28.736-49.772-28.736v-57.471ZM1149.772 3017.241l49.771 28.736v57.471l-49.771 28.736-49.772-28.736v-57.471ZM1249.772 3017.241l49.771 28.736v57.471l-49.771 28.736-49.772-28.736v-57.471ZM1349.772 3017.241l49.771 28.736v57.471l-49.771 28.736-49.772-28.736v-57.471ZM1449.772 3017.241l49.771 28.736v57.471l-49.771 28.736-49.772-28.736v-57.471ZM1549.772 3017.241l49.771 28.736v57.471l-49.771 28.736-49.772-28.736v-57.471ZM1649.772 3017.241l49.771 28.736v57.471l-49.771 28.736-49.772-28.736v-57.471ZM1749.772 3017.241l49.771 28.736v57.471l-49.771 28.736-49.772-28.736v-57.471ZM1849.772 3017.241l49.771 28.736v57.471l-49.771 28.736-49.772-28.736v-57.471ZM1949.772 3017.241l49.771 28.736v57.471l-49.771 28.736-49.772-28.736v-57.471ZM99.772 3103.448l49.771 28.736v57.471l-49.771 28.736L50 3189.655v-57.471ZM199.772 3103.448l49.771 28.736v57.471l-49.771 28.736L150 3189.655v-57.471ZM299.772 3103.448l49.771 28.736v57.471l-49.771 28.736L250 3189.655v-57.471ZM399.772 3103.448l49.771 28.736v57.471l-49.771 28.736L350 3189.655v-57.471ZM499.772 3103.448l49.771 28.736v57.471l-49.771 28.736L450 3189.655v-57.471ZM599.772 3103.448l49.771 28.736v57.471l-49.771 28.736L550 3189.655v-57.471ZM699.772 3103.448l49.771 28.736v57.471l-49.771 28.736L650 3189.655v-57.471ZM799.772 3103.448l49.771 28.736v57.471l-49.771 28.736L750 3189.655v-57.471ZM899.772 3103.448l49.771 28.736v57.471l-49.771 28.736L850 3189.655v-57.471ZM999.772 3103.448l49.771 28.736v57.471l-49.771 28.736L950 3189.655v-57.471ZM1099.772 3103.448l49.771 28.736v57.471l-49.771 28.736-49.772-28.736v-57.471ZM1199.772 3103.448l49.771 28.736v57.471l-49.771 28.736-49.772-28.736v-57.471ZM1299.772 3103.448l49.771 28.736v57.471l-49.771 28.736-49.772-28.736v-57.471ZM1399.772 3103.448l49.771 28.736v57.471l-49.771 28.736-49.772-28.736v-57.471ZM1499.772 3103.448l49.771 28.736v57.471l-49.771 28.736-49.772-28.736v-57.471ZM1599.772 3103.448l49.771 28.736v57.471l-49.771 28.736-49.772-28.736v-57.471ZM1699.772 3103.448l49.771 28.736v57.471l-49.771 28.736-49.772-28.736v-57.471ZM1799.772 3103.448l49.771 28.736v57.471l-49.771 28.736-49.772-28.736v-57.471ZM1899.772 3103.448l49.771 28.736v57.471l-49.771 28.736-49.772-28.736v-57.471ZM1999.772 3103.448l49.771 28.736v57.471l-49.771 28.736-49.772-28.736v-57.471ZM49.772 3189.655l49.771 28.736v57.471l-49.771 28.736L0 3275.862v-57.471ZM149.772 3189.655l49.771 28.736v57.471l-49.771 28.736L100 3275.862v-57.471ZM249.772 3189.655l49.771 28.736v57.471l-49.771 28.736L200 3275.862v-57.471ZM349.772 3189.655l49.771 28.736v57.471l-49.771 28.736L300 3275.862v-57.471ZM449.772 3189.655l49.771 28.736v57.471l-49.771 28.736L400 3275.862v-57.471ZM549.772 3189.655l49.771 28.736v57.471l-49.771 28.736L500 3275.862v-57.471ZM649.772 3189.655l49.771 28.736v57.471l-49.771 28.736L600 3275.862v-57.471ZM749.772 3189.655l49.771 28.736v57.471l-49.771 28.736L700 3275.862v-57.471ZM849.772 3189.655l49.771 28.736v57.471l-49.771 28.736L800 3275.862v-57.471ZM949.772 3189.655l49.771 28.736v57.471l-49.771 28.736L900 3275.862v-57.471ZM1049.772 3189.655l49.771 28.736v57.471l-49.771 28.736-49.772-28.736v-57.471ZM1149.772 3189.655l49.771 28.736v57.471l-49.771 28.736-49.772-28.736v-57.471ZM1249.772 3189.655l49.771 28.736v57.471l-49.771 28.736-49.772-28.736v-57.471ZM1349.772 3189.655l49.771 28.736v57.471l-49.771 28.736-49.772-28.736v-57.471ZM1449.772 3189.655l49.771 28.736v57.471l-49.771 28.736-49.772-28.736v-57.471ZM1549.772 3189.655l49.771 28.736v57.471l-49.771 28.736-49.772-28.736v-57.471ZM1649.772 3189.655l49.771 28.736v57.471l-49.771 28.736-49.772-28.736v-57.471ZM1749.772 3189.655l49.771 28.736v57.471l-49.771 28.736-49.772-28.736v-57.471ZM1849.772 3189.655l49.771 28.736v57.471l-49.771 28.736-49.772-28.736v-57.471ZM1949.772 3189.655l49.771 28.736v57.471l-49.771 28.736-49.772-28.736v-57.471ZM99.772 3275.862l49.771 28.736v57.471l-49.771 28.736L50 3362.069v-57.471ZM199.772 3275.862l49.771 28.736v57.471l-49.771 28.736L150 3362.069v-57.471ZM299.772 3275.862l49.771 28.736v57.471l-49.771 28.736L250 3362.069v-57.471ZM399.772 3275.862l49.771 28.736v57.471l-49.771 28.736L350 3362.069v-57.471ZM499.772 3275.862l49.771 28.736v57.471l-49.771 28.736L450 3362.069v-57.471ZM599.772 3275.862l49.771 28.736v57.471l-49.771 28.736L550 3362.069v-57.471ZM699.772 3275.862l49.771 28.736v57.471l-49.771 28.736L650 3362.069v-57.471ZM799.772 3275.862l49.771 28.736v57.471l-49.771 28.736L750 3362.069v-57.471ZM899.772 3275.862l49.771 28.736v57.471l-49.771 28.736L850 3362.069v-57.471ZM999.772 3275.862l49.771 28.736v57.471l-49.771 28.736L950 3362.069v-57.471ZM1099.772 3275.862l49.771 28.736v57.471l-49.771 28.736-49.772-28.736v-57.471ZM1199.772 3275.862l49.771 28.736v57.471l-49.771 28.736-49.772-28.736v-57.471ZM1299.772 3275.862l49.771 28.736v57.471l-49.771 28.736-49.772-28.736v-57.471ZM1399.772 3275.862l49.771 28.736v57.471l-49.771 28.736-49.772-28.736v-57.471ZM1499.772 3275.862l49.771 28.736v57.471l-49.771 28.736-49.772-28.736v-57.471ZM1599.772 3275.862l49.771 28.736v57.471l-49.771 28.736-49.772-28.736v-57.471ZM1699.772 3275.862l49.771 28.736v57.471l-49.771 28.736-49.772-28.736v-57.471ZM1799.772 3275.862l49.771 28.736v57.471l-49.771 28.736-49.772-28.736v-57.471ZM1899.772 3275.862l49.771 28.736v57.471l-49.771 28.736-49.772-28.736v-57.471ZM1999.772 3275.862l49.771 28.736v57.471l-49.771 28.736-49.772-28.736v-57.471ZM49.772 3362.069l49.771 28.736v57.47l-49.771 28.736L0 3448.276v-57.471ZM149.772 3362.069l49.771 28.736v57.47l-49.771 28.736L100 3448.276v-57.471ZM249.772 3362.069l49.771 28.736v57.47l-49.771 28.736L200 3448.276v-57.471ZM349.772 3362.069l49.771 28.736v57.47l-49.771 28.736L300 3448.276v-57.471ZM449.772 3362.069l49.771 28.736v57.47l-49.771 28.736L400 3448.276v-57.471ZM549.772 3362.069l49.771 28.736v57.47l-49.771 28.736L500 3448.276v-57.471ZM649.772 3362.069l49.771 28.736v57.47l-49.771 28.736L600 3448.276v-57.471ZM749.772 3362.069l49.771 28.736v57.47l-49.771 28.736L700 3448.276v-57.471ZM849.772 3362.069l49.771 28.736v57.47l-49.771 28.736L800 3448.276v-57.471ZM949.772 3362.069l49.771 28.736v57.47l-49.771 28.736L900 3448.276v-57.471ZM1049.772 3362.069l49.771 28.736v57.47l-49.771 28.736-49.772-28.735v-57.471ZM1149.772 3362.069l49.771 28.736v57.47l-49.771 28.736-49.772-28.735v-57.471ZM1249.772 3362.069l49.771 28.736v57.47l-49.771 28.736-49.772-28.735v-57.471ZM1349.772 3362.069l49.771 28.736v57.47l-49.771 28.736-49.772-28.735v-57.471ZM1449.772 3362.069l49.771 28.736v57.47l-49.771 28.736-49.772-28.735v-57.471ZM1549.772 3362.069l49.771 28.736v57.47l-49.771 28.736-49.772-28.735v-57.471ZM1649.772 3362.069l49.771 28.736v57.47l-49.771 28.736-49.772-28.735v-57.471ZM1749.772 3362.069l49.771 28.736v57.47l-49.771 28.736-49.772-28.735v-57.471ZM1849.772 3362.069l49.771 28.736v57.47l-49.771 28.736-49.772-28.735v-57.471ZM1949.772 3362.069l49.771 28.736v57.47l-49.771 28.736-49.772-28.735v-57.471ZM99.772 3448.276l49.771 28.735v57.472l-49.771 28.735L50 3534.483v-57.472ZM199.772 3448.276l49.771 28.735v57.472l-49.771 28.735L150 3534.483v-57.472ZM299.772 3448.276l49.771 28.735v57.472l-49.771 28.735L250 3534.483v-57.472ZM399.772 3448.276l49.771 28.735v57.472l-49.771 28.735L350 3534.483v-57.472ZM499.772 3448.276l49.771 28.735v57.472l-49.771 28.735L450 3534.483v-57.472ZM599.772 3448.276l49.771 28.735v57.472l-49.771 28.735L550 3534.483v-57.472ZM699.772 3448.276l49.771 28.735v57.472l-49.771 28.735L650 3534.483v-57.472ZM799.772 3448.276l49.771 28.735v57.472l-49.771 28.735L750 3534.483v-57.472ZM899.772 3448.276l49.771 28.735v57.472l-49.771 28.735L850 3534.483v-57.472ZM999.772 3448.276l49.771 28.735v57.472l-49.771 28.735L950 3534.483v-57.472ZM1099.772 3448.276l49.771 28.735v57.472l-49.771 28.735-49.772-28.735v-57.472ZM1199.772 3448.276l49.771 28.735v57.472l-49.771 28.735-49.772-28.735v-57.472ZM1299.772 3448.276l49.771 28.735v57.472l-49.771 28.735-49.772-28.735v-57.472ZM1399.772 3448.276l49.771 28.735v57.472l-49.771 28.735-49.772-28.735v-57.472ZM1499.772 3448.276l49.771 28.735v57.472l-49.771 28.735-49.772-28.735v-57.472ZM1599.772 3448.276l49.771 28.735v57.472l-49.771 28.735-49.772-28.735v-57.472ZM1699.772 3448.276l49.771 28.735v57.472l-49.771 28.735-49.772-28.735v-57.472ZM1799.772 3448.276l49.771 28.735v57.472l-49.771 28.735-49.772-28.735v-57.472ZM1899.772 3448.276l49.771 28.735v57.472l-49.771 28.735-49.772-28.735v-57.472ZM1999.772 3448.276l49.771 28.735v57.472l-49.771 28.735-49.772-28.735v-57.472ZM49.772 3534.483l49.771 28.735v57.472l-49.771 28.735L0 3620.69v-57.472ZM149.772 3534.483l49.771 28.735v57.472l-49.771 28.735L100 3620.69v-57.472ZM249.772 3534.483l49.771 28.735v57.472l-49.771 28.735L200 3620.69v-57.472ZM349.772 3534.483l49.771 28.735v57.472l-49.771 28.735L300 3620.69v-57.472ZM449.772 3534.483l49.771 28.735v57.472l-49.771 28.735L400 3620.69v-57.472ZM549.772 3534.483l49.771 28.735v57.472l-49.771 28.735L500 3620.69v-57.472ZM649.772 3534.483l49.771 28.735v57.472l-49.771 28.735L600 3620.69v-57.472ZM749.772 3534.483l49.771 28.735v57.472l-49.771 28.735L700 3620.69v-57.472ZM849.772 3534.483l49.771 28.735v57.472l-49.771 28.735L800 3620.69v-57.472ZM949.772 3534.483l49.771 28.735v57.472l-49.771 28.735L900 3620.69v-57.472ZM1049.772 3534.483l49.771 28.735v57.472l-49.771 28.735L1000 3620.69v-57.472ZM1149.772 3534.483l49.771 28.735v57.472l-49.771 28.735L1100 3620.69v-57.472ZM1249.772 3534.483l49.771 28.735v57.472l-49.771 28.735L1200 3620.69v-57.472ZM1349.772 3534.483l49.771 28.735v57.472l-49.771 28.735L1300 3620.69v-57.472ZM1449.772 3534.483l49.771 28.735v57.472l-49.771 28.735L1400 3620.69v-57.472ZM1549.772 3534.483l49.771 28.735v57.472l-49.771 28.735L1500 3620.69v-57.472ZM1649.772 3534.483l49.771 28.735v57.472l-49.771 28.735L1600 3620.69v-57.472ZM1749.772 3534.483l49.771 28.735v57.472l-49.771 28.735L1700 3620.69v-57.472ZM1849.772 3534.483l49.771 28.735v57.472l-49.771 28.735L1800 3620.69v-57.472ZM1949.772 3534.483l49.771 28.735v57.472l-49.771 28.735L1900 3620.69v-57.472ZM99.772 3620.69l49.771 28.735v57.472l-49.771 28.735L50 3706.897v-57.472ZM199.772 3620.69l49.771 28.735v57.472l-49.771 28.735L150 3706.897v-57.472ZM299.772 3620.69l49.771 28.735v57.472l-49.771 28.735L250 3706.897v-57.472ZM399.772 3620.69l49.771 28.735v57.472l-49.771 28.735L350 3706.897v-57.472ZM499.772 3620.69l49.771 28.735v57.472l-49.771 28.735L450 3706.897v-57.472ZM599.772 3620.69l49.771 28.735v57.472l-49.771 28.735L550 3706.897v-57.472ZM699.772 3620.69l49.771 28.735v57.472l-49.771 28.735L650 3706.897v-57.472ZM799.772 3620.69l49.771 28.735v57.472l-49.771 28.735L750 3706.897v-57.472ZM899.772 3620.69l49.771 28.735v57.472l-49.771 28.735L850 3706.897v-57.472ZM999.772 3620.69l49.771 28.735v57.472l-49.771 28.735L950 3706.897v-57.472ZM1099.772 3620.69l49.771 28.735v57.472l-49.771 28.735-49.772-28.735v-57.472ZM1199.772 3620.69l49.771 28.735v57.472l-49.771 28.735-49.772-28.735v-57.472ZM1299.772 3620.69l49.771 28.735v57.472l-49.771 28.735-49.772-28.735v-57.472ZM1399.772 3620.69l49.771 28.735v57.472l-49.771 28.735-49.772-28.735v-57.472ZM1499.772 3620.69l49.771 28.735v57.472l-49.771 28.735-49.772-28.735v-57.472ZM1599.772 3620.69l49.771 28.735v57.472l-49.771 28.735-49.772-28.735v-57.472ZM1699.772 3620.69l49.771 28.735v57.472l-49.771 28.735-49.772-28.735v-57.472ZM1799.772 3620.69l49.771 28.735v57.472l-49.771 28.735-49.772-28.735v-57.472ZM1899.772 3620.69l49.771 28.735v57.472l-49.771 28.735-49.772-28.735v-57.472ZM1999.772 3620.69l49.771 28.735v57.472l-49.771 28.735-49.772-28.735v-57.472ZM49.772 3706.897l49.771 28.735v57.471l-49.771 28.736L0 3793.103v-57.47ZM149.772 3706.897l49.771 28.735v57.471l-49.771 28.736L100 3793.103v-57.47ZM249.772 3706.897l49.771 28.735v57.471l-49.771 28.736L200 3793.103v-57.47ZM349.772 3706.897l49.771 28.735v57.471l-49.771 28.736L300 3793.103v-57.47ZM449.772 3706.897l49.771 28.735v57.471l-49.771 28.736L400 3793.103v-57.47ZM549.772 3706.897l49.771 28.735v57.471l-49.771 28.736L500 3793.103v-57.47ZM649.772 3706.897l49.771 28.735v57.471l-49.771 28.736L600 3793.103v-57.47ZM749.772 3706.897l49.771 28.735v57.471l-49.771 28.736L700 3793.103v-57.47ZM849.772 3706.897l49.771 28.735v57.471l-49.771 28.736L800 3793.103v-57.47ZM949.772 3706.897l49.771 28.735v57.471l-49.771 28.736L900 3793.103v-57.47ZM1049.772 3706.897l49.771 28.735v57.471l-49.771 28.736-49.772-28.736v-57.47ZM1149.772 3706.897l49.771 28.735v57.471l-49.771 28.736-49.772-28.736v-57.47ZM1249.772 3706.897l49.771 28.735v57.471l-49.771 28.736-49.772-28.736v-57.47ZM1349.772 3706.897l49.771 28.735v57.471l-49.771 28.736-49.772-28.736v-57.47ZM1449.772 3706.897l49.771 28.735v57.471l-49.771 28.736-49.772-28.736v-57.47ZM1549.772 3706.897l49.771 28.735v57.471l-49.771 28.736-49.772-28.736v-57.47ZM1649.772 3706.897l49.771 28.735v57.471l-49.771 28.736-49.772-28.736v-57.47ZM1749.772 3706.897l49.771 28.735v57.471l-49.771 28.736-49.772-28.736v-57.47ZM1849.772 3706.897l49.771 28.735v57.471l-49.771 28.736-49.772-28.736v-57.47ZM1949.772 3706.897l49.771 28.735v57.471l-49.771 28.736-49.772-28.736v-57.47ZM99.772 3793.103l49.771 28.736v57.471l-49.771 28.736L50 3879.31v-57.47ZM199.772 3793.103l49.771 28.736v57.471l-49.771 28.736L150 3879.31v-57.47ZM299.772 3793.103l49.771 28.736v57.471l-49.771 28.736L250 3879.31v-57.47ZM399.772 3793.103l49.771 28.736v57.471l-49.771 28.736L350 3879.31v-57.47ZM499.772 3793.103l49.771 28.736v57.471l-49.771 28.736L450 3879.31v-57.47ZM599.772 3793.103l49.771 28.736v57.471l-49.771 28.736L550 3879.31v-57.47ZM699.772 3793.103l49.771 28.736v57.471l-49.771 28.736L650 3879.31v-57.47ZM799.772 3793.103l49.771 28.736v57.471l-49.771 28.736L750 3879.31v-57.47ZM899.772 3793.103l49.771 28.736v57.471l-49.771 28.736L850 3879.31v-57.47ZM999.772 3793.103l49.771 28.736v57.471l-49.771 28.736L950 3879.31v-57.47ZM1099.772 3793.103l49.771 28.736v57.471l-49.771 28.736L1050 3879.31v-57.47ZM1199.772 3793.103l49.771 28.736v57.471l-49.771 28.736L1150 3879.31v-57.47ZM1299.772 3793.103l49.771 28.736v57.471l-49.771 28.736L1250 3879.31v-57.47ZM1399.772 3793.103l49.771 28.736v57.471l-49.771 28.736L1350 3879.31v-57.47ZM1499.772 3793.103l49.771 28.736v57.471l-49.771 28.736L1450 3879.31v-57.47ZM1599.772 3793.103l49.771 28.736v57.471l-49.771 28.736L1550 3879.31v-57.47ZM1699.772 3793.103l49.771 28.736v57.471l-49.771 28.736L1650 3879.31v-57.47ZM1799.772 3793.103l49.771 28.736v57.471l-49.771 28.736L1750 3879.31v-57.47ZM1899.772 3793.103l49.771 28.736v57.471l-49.771 28.736L1850 3879.31v-57.47ZM1999.772 3793.103l49.771 28.736v57.471l-49.771 28.736L1950 3879.31v-57.47ZM49.772 3879.31l49.771 28.736v57.471l-49.771 28.736L0 3965.517v-57.471ZM149.772 3879.31l49.771 28.736v57.471l-49.771 28.736L100 3965.517v-57.471ZM249.772 3879.31l49.771 28.736v57.471l-49.771 28.736L200 3965.517v-57.471ZM349.772 3879.31l49.771 28.736v57.471l-49.771 28.736L300 3965.517v-57.471ZM449.772 3879.31l49.771 28.736v57.471l-49.771 28.736L400 3965.517v-57.471ZM549.772 3879.31l49.771 28.736v57.471l-49.771 28.736L500 3965.517v-57.471ZM649.772 3879.31l49.771 28.736v57.471l-49.771 28.736L600 3965.517v-57.471ZM749.772 3879.31l49.771 28.736v57.471l-49.771 28.736L700 3965.517v-57.471ZM849.772 3879.31l49.771 28.736v57.471l-49.771 28.736L800 3965.517v-57.471ZM949.772 3879.31l49.771 28.736v57.471l-49.771 28.736L900 3965.517v-57.471ZM1049.772 3879.31l49.771 28.736v57.471l-49.771 28.736-49.772-28.736v-57.471ZM1149.772 3879.31l49.771 28.736v57.471l-49.771 28.736-49.772-28.736v-57.471ZM1249.772 3879.31l49.771 28.736v57.471l-49.771 28.736-49.772-28.736v-57.471ZM1349.772 3879.31l49.771 28.736v57.471l-49.771 28.736-49.772-28.736v-57.471ZM1449.772 3879.31l49.771 28.736v57.471l-49.771 28.736-49.772-28.736v-57.471ZM1549.772 3879.31l49.771 28.736v57.471l-49.771 28.736-49.772-28.736v-57.471ZM1649.772 3879.31l49.771 28.736v57.471l-49.771 28.736-49.772-28.736v-57.471ZM1749.772 3879.31l49.771 28.736v57.471l-49.771 28.736-49.772-28.736v-57.471ZM1849.772 3879.31l49.771 28.736v57.471l-49.771 28.736-49.772-28.736v-57.471ZM1949.772 3879.31l49.771 28.736v57.471l-49.771 28.736-49.772-28.736v-57.471ZM99.772 3965.517l49.771 28.736v57.471l-49.771 28.736L50 4051.724v-57.471ZM199.772 3965.517l49.771 28.736v57.471l-49.771 28.736L150 4051.724v-57.471ZM299.772 3965.517l49.771 28.736v57.471l-49.771 28.736L250 4051.724v-57.471ZM399.772 3965.517l49.771 28.736v57.471l-49.771 28.736L350 4051.724v-57.471ZM499.772 3965.517l49.771 28.736v57.471l-49.771 28.736L450 4051.724v-57.471ZM599.772 3965.517l49.771 28.736v57.471l-49.771 28.736L550 4051.724v-57.471ZM699.772 3965.517l49.771 28.736v57.471l-49.771 28.736L650 4051.724v-57.471ZM799.772 3965.517l49.771 28.736v57.471l-49.771 28.736L750 4051.724v-57.471ZM899.772 3965.517l49.771 28.736v57.471l-49.771 28.736L850 4051.724v-57.471ZM999.772 3965.517l49.771 28.736v57.471l-49.771 28.736L950 4051.724v-57.471ZM1099.772 3965.517l49.771 28.736v57.471l-49.771 28.736-49.772-28.736v-57.471ZM1199.772 3965.517l49.771 28.736v57.471l-49.771 28.736-49.772-28.736v-57.471ZM1299.772 3965.517l49.771 28.736v57.471l-49.771 28.736-49.772-28.736v-57.471ZM1399.772 3965.517l49.771 28.736v57.471l-49.771 28.736-49.772-28.736v-57.471ZM1499.772 3965.517l49.771 28.736v57.471l-49.771 28.736-49.772-28.736v-57.471ZM1599.772 3965.517l49.771 28.736v57.471l-49.771 28.736-49.772-28.736v-57.471ZM1699.772 3965.517l49.771 28.736v57.471l-49.771 28.736-49.772-28.736v-57.471ZM1799.772 3965.517l49.771 28.736v57.471l-49.771 28.736-49.772-28.736v-57.471ZM1899.772 3965.517l49.771 28.736v57.471l-49.771 28.736-49.772-28.736v-57.471ZM1999.772 3965.517l49.771 28.736v57.471l-49.771 28.736-49.772-28.736v-57.471ZM49.772 4051.724l49.771 28.736v57.471l-49.771 28.736L0 4137.93v-57.471ZM149.772 4051.724l49.771 28.736v57.471l-49.771 28.736L100 4137.93v-57.471ZM249.772 4051.724l49.771 28.736v57.471l-49.771 28.736L200 4137.93v-57.471ZM349.772 4051.724l49.771 28.736v57.471l-49.771 28.736L300 4137.93v-57.471ZM449.772 4051.724l49.771 28.736v57.471l-49.771 28.736L400 4137.93v-57.471ZM549.772 4051.724l49.771 28.736v57.471l-49.771 28.736L500 4137.93v-57.471ZM649.772 4051.724l49.771 28.736v57.471l-49.771 28.736L600 4137.93v-57.471ZM749.772 4051.724l49.771 28.736v57.471l-49.771 28.736L700 4137.93v-57.471ZM849.772 4051.724l49.771 28.736v57.471l-49.771 28.736L800 4137.93v-57.471ZM949.772 4051.724l49.771 28.736v57.471l-49.771 28.736L900 4137.93v-57.471ZM1049.772 4051.724l49.771 28.736v57.471l-49.771 28.736L1000 4137.93v-57.471ZM1149.772 4051.724l49.771 28.736v57.471l-49.771 28.736L1100 4137.93v-57.471ZM1249.772 4051.724l49.771 28.736v57.471l-49.771 28.736L1200 4137.93v-57.471ZM1349.772 4051.724l49.771 28.736v57.471l-49.771 28.736L1300 4137.93v-57.471ZM1449.772 4051.724l49.771 28.736v57.471l-49.771 28.736L1400 4137.93v-57.471ZM1549.772 4051.724l49.771 28.736v57.471l-49.771 28.736L1500 4137.93v-57.471ZM1649.772 4051.724l49.771 28.736v57.471l-49.771 28.736L1600 4137.93v-57.471ZM1749.772 4051.724l49.771 28.736v57.471l-49.771 28.736L1700 4137.93v-57.471ZM1849.772 4051.724l49.771 28.736v57.471l-49.771 28.736L1800 4137.93v-57.471ZM1949.772 4051.724l49.771 28.736v57.471l-49.771 28.736L1900 4137.93v-57.471ZM99.772 4137.931l49.771 28.736v57.47l-49.771 28.737L50 4224.138v-57.471ZM199.772 4137.931l49.771 28.736v57.47l-49.771 28.737L150 4224.138v-57.471ZM299.772 4137.931l49.771 28.736v57.47l-49.771 28.737L250 4224.138v-57.471ZM399.772 4137.931l49.771 28.736v57.47l-49.771 28.737L350 4224.138v-57.471ZM499.772 4137.931l49.771 28.736v57.47l-49.771 28.737L450 4224.138v-57.471ZM599.772 4137.931l49.771 28.736v57.47l-49.771 28.737L550 4224.138v-57.471ZM699.772 4137.931l49.771 28.736v57.47l-49.771 28.737L650 4224.138v-57.471ZM799.772 4137.931l49.771 28.736v57.47l-49.771 28.737L750 4224.138v-57.471ZM899.772 4137.931l49.771 28.736v57.47l-49.771 28.737L850 4224.138v-57.471ZM999.772 4137.931l49.771 28.736v57.47l-49.771 28.737L950 4224.138v-57.471ZM1099.772 4137.931l49.771 28.736v57.47l-49.771 28.737-49.772-28.736v-57.471ZM1199.772 4137.931l49.771 28.736v57.47l-49.771 28.737-49.772-28.736v-57.471ZM1299.772 4137.931l49.771 28.736v57.47l-49.771 28.737-49.772-28.736v-57.471ZM1399.772 4137.931l49.771 28.736v57.47l-49.771 28.737-49.772-28.736v-57.471ZM1499.772 4137.931l49.771 28.736v57.47l-49.771 28.737-49.772-28.736v-57.471ZM1599.772 4137.931l49.771 28.736v57.47l-49.771 28.737-49.772-28.736v-57.471ZM1699.772 4137.931l49.771 28.736v57.47l-49.771 28.737-49.772-28.736v-57.471ZM1799.772 4137.931l49.771 28.736v57.47l-49.771 28.737-49.772-28.736v-57.471ZM1899.772 4137.931l49.771 28.736v57.47l-49.771 28.737-49.772-28.736v-57.471ZM1999.772 4137.931l49.771 28.736v57.47l-49.771 28.737-49.772-28.736v-57.471Z"/></g><defs><radialGradient id="a"><stop offset="0" stop-color="#fff"/><stop offset="1" stop-color="#fff"/></radialGradient></defs></svg>